<?xml version="1.0" standalone="no"?>
<!DOCTYPE svg PUBLIC "-//W3C//DTD SVG 20010904//EN"
 "http://www.w3.org/TR/2001/REC-SVG-20010904/DTD/svg10.dtd">
<svg version="1.0" xmlns="http://www.w3.org/2000/svg"
 width="704.000000pt" height="782.000000pt" viewBox="0 0 704.000000 782.000000"
 preserveAspectRatio="xMidYMid meet">

<g transform="translate(0.000000,782.000000) scale(0.100000,-0.100000)"
fill="#000000" stroke="none">
<path d="M3651 6710 c-70 -15 -127 -55 -172 -121 -41 -61 -51 -68 -127 -88
-81 -22 -132 -98 -132 -198 0 -41 -13 -63 -25 -43 -9 15 -61 12 -75 -5 -19
-23 -24 -98 -9 -126 7 -13 16 -40 20 -59 4 -19 12 -48 18 -65 6 -16 16 -50 22
-74 7 -28 26 -60 55 -91 48 -51 52 -64 29 -86 -19 -20 -19 -74 0 -100 8 -10
15 -30 15 -43 0 -14 16 -40 40 -63 22 -22 37 -44 34 -49 -8 -14 -56 -11 -150
12 -48 11 -99 18 -113 16 -14 -3 -66 3 -116 14 -160 33 -264 20 -413 -55 -51
-25 -99 -46 -109 -46 -9 0 -50 -12 -91 -26 -41 -14 -112 -29 -158 -34 -46 -5
-88 -11 -93 -15 -5 -3 -12 -1 -16 5 -13 21 -159 112 -223 140 -91 38 -203 60
-312 60 -165 0 -220 -29 -220 -117 0 -51 20 -94 84 -178 38 -49 86 -133 86
-149 0 -2 -19 -16 -41 -31 -35 -23 -45 -25 -66 -16 -30 14 -117 14 -202 0
-106 -16 -111 -18 -121 -43 -6 -16 -20 -26 -44 -30 -85 -16 -190 -85 -278
-183 -22 -24 -110 -102 -183 -160 -70 -57 -125 -126 -125 -157 0 -12 -19 -47
-41 -77 -52 -68 -99 -168 -110 -234 -4 -27 -20 -84 -34 -125 -17 -48 -26 -95
-25 -130 1 -30 -4 -125 -10 -210 -6 -85 -9 -185 -6 -221 4 -64 4 -66 -25 -83
-58 -34 -95 -150 -86 -268 6 -68 13 -95 48 -165 47 -94 90 -136 185 -180 32
-15 82 -29 111 -31 l51 -4 67 -99 c143 -213 197 -347 220 -542 18 -153 34
-200 91 -265 76 -87 156 -112 240 -77 42 17 110 84 126 123 33 82 28 194 -16
343 -14 48 -27 92 -28 99 -2 6 25 22 59 35 l61 23 62 -19 c45 -14 91 -19 169
-19 l108 0 26 -54 c15 -30 37 -97 48 -148 12 -51 30 -110 42 -130 29 -53 99
-100 158 -106 41 -4 55 0 106 31 118 73 153 193 99 346 -14 41 -26 78 -26 83
0 4 12 8 26 8 14 0 59 13 101 30 41 16 81 30 88 30 7 0 52 26 99 58 87 58 154
131 183 200 19 45 42 38 58 -16 7 -23 20 -53 28 -65 13 -20 13 -37 -1 -145
-17 -138 -10 -172 39 -197 41 -22 74 -18 108 11 17 14 31 24 31 22 0 -2 5 -42
11 -88 6 -47 16 -151 24 -231 15 -169 35 -222 107 -284 58 -49 170 -103 243
-116 33 -7 81 -20 107 -30 59 -24 101 -24 177 0 46 14 63 16 70 7 23 -27 34
-78 41 -186 10 -142 21 -187 63 -242 42 -56 87 -78 157 -78 99 1 161 44 217
154 39 75 43 216 10 341 l-24 89 21 29 c15 21 22 47 24 103 5 96 -3 136 -35
174 -42 51 -77 63 -196 68 l-109 5 -40 51 c-48 61 -96 95 -144 103 -26 4 -34
10 -34 27 0 46 45 234 97 404 l25 82 98 -87 c54 -49 99 -94 99 -101 1 -7 -21
-62 -49 -121 -67 -143 -66 -165 10 -210 76 -45 122 -21 182 95 18 35 36 64 39
64 3 0 60 -55 126 -123 116 -119 120 -124 131 -183 10 -48 22 -71 57 -113 l45
-53 0 -87 c0 -91 9 -116 56 -154 12 -9 30 -37 38 -62 9 -25 23 -66 32 -91 13
-37 27 -52 70 -80 41 -26 64 -52 104 -116 28 -46 53 -94 56 -108 2 -14 9 -43
14 -65 6 -22 10 -96 10 -165 0 -69 0 -143 0 -164 0 -62 21 -86 78 -86 26 0 72
-7 102 -15 30 -8 81 -15 114 -15 32 0 88 -7 125 -15 133 -29 342 -57 379 -50
20 4 83 10 139 14 103 8 103 8 141 47 83 86 87 103 41 200 -37 78 -89 117
-178 133 -31 6 -80 15 -110 21 -30 5 -78 24 -106 41 -58 35 -155 117 -155 130
0 5 -15 31 -33 58 -33 48 -99 216 -112 284 -4 21 -3 37 4 41 21 14 11 79 -26
160 -28 61 -38 98 -41 149 -4 63 -7 71 -47 115 -46 52 -82 118 -110 202 -10
30 -31 84 -47 120 -37 82 -212 369 -316 518 l-79 114 43 40 c60 56 60 91 -1
191 -33 55 -45 85 -45 114 0 75 -103 213 -171 228 -16 4 -29 9 -29 11 0 3 9
22 20 44 42 82 16 158 -60 181 -50 15 -102 5 -133 -27 -33 -32 -43 -26 -51 31
-8 51 9 120 51 214 22 49 26 54 36 38 201 -316 284 -420 372 -462 96 -46 284
-42 438 10 76 26 79 26 105 9 44 -30 118 -24 178 13 28 17 65 34 84 38 20 4
53 27 83 57 l50 50 86 -16 c47 -9 108 -16 134 -16 64 0 226 42 313 80 121 55
138 64 183 105 119 107 161 168 161 230 0 33 8 53 41 96 103 137 145 295 103
385 -9 19 -32 48 -52 65 l-36 32 22 17 c12 10 115 82 230 161 258 177 252 172
252 224 0 50 -31 85 -76 85 -36 -1 -42 -4 -189 -115 -66 -49 -129 -97 -140
-105 -11 -8 27 30 84 85 58 55 115 111 128 124 27 28 30 76 8 107 -19 27 -68
48 -98 40 -12 -3 -63 -47 -112 -98 -49 -51 -161 -166 -248 -254 l-158 -162
-58 13 c-87 21 -323 35 -444 27 -60 -4 -110 -5 -113 -3 -2 2 -4 21 -4 40 0 20
-7 46 -15 58 -21 30 -69 39 -100 19 -24 -16 -25 -15 -38 16 -8 18 -26 48 -42
66 -25 30 -32 33 -74 30 -40 -3 -48 -7 -60 -33 -12 -26 -12 -35 1 -72 l16 -43
-32 0 c-39 0 -76 -35 -76 -72 0 -15 15 -43 39 -69 l38 -43 -39 -28 c-59 -44
-78 -82 -78 -159 0 -111 43 -228 127 -346 l45 -63 -54 0 c-38 0 -65 -7 -97
-25 -62 -36 -139 -35 -215 4 -50 25 -63 38 -98 97 -57 98 -118 229 -118 254 0
25 -15 56 -40 85 -10 11 -23 54 -30 99 -16 106 -41 174 -89 244 -43 63 -74 86
-233 171 l-96 51 31 56 c18 30 56 94 86 142 106 172 129 233 161 439 11 67 17
84 36 94 30 16 74 79 74 106 0 13 15 30 39 46 51 34 85 104 78 158 -6 49 -32
89 -56 89 -16 0 -19 10 -23 75 -4 58 -11 83 -31 113 -31 47 -97 82 -154 82
-39 0 -42 3 -63 45 -35 73 -118 130 -206 142 -37 5 -64 0 -129 -22 l-82 -29
-89 22 c-117 28 -160 33 -213 22z m158 -50 c129 -34 159 -35 230 -6 79 32 121
33 187 2 43 -20 114 -87 114 -107 0 -4 7 -23 16 -44 11 -28 18 -35 27 -26 19
19 91 13 128 -12 56 -37 70 -77 67 -187 -3 -90 -2 -95 18 -98 15 -2 23 4 27
20 9 32 27 11 34 -38 6 -48 -26 -101 -77 -126 -27 -14 -35 -25 -37 -49 -3 -37
-44 -95 -72 -104 -21 -6 -24 -17 -57 -208 -18 -107 -57 -200 -136 -322 -25
-38 -57 -93 -71 -122 -15 -28 -40 -62 -57 -75 -39 -31 -44 -26 142 -127 130
-70 147 -83 190 -139 51 -67 70 -119 93 -250 11 -60 22 -92 40 -114 14 -16 25
-41 25 -56 0 -42 123 -281 174 -339 11 -13 25 -23 31 -23 7 0 24 -9 38 -20 18
-14 47 -21 109 -26 80 -6 88 -5 130 20 40 23 55 26 136 26 51 0 92 3 92 6 0 3
-26 35 -59 70 -99 108 -161 250 -161 367 0 77 18 106 93 150 l59 36 -56 52
c-63 58 -71 92 -26 97 18 2 41 -12 85 -52 33 -30 62 -53 64 -50 3 3 -19 54
-49 115 -44 87 -52 113 -44 127 29 45 74 11 114 -85 13 -32 33 -78 44 -103
l21 -45 5 64 c9 112 65 109 77 -3 6 -56 7 -58 32 -52 118 25 431 14 570 -21
l66 -17 257 265 258 264 27 -15 c58 -32 46 -48 -209 -294 -131 -125 -238 -232
-238 -236 0 -24 25 -16 87 26 63 43 288 210 442 326 35 26 74 48 88 48 28 0
50 -39 36 -64 -5 -9 -69 -57 -143 -107 -296 -201 -383 -263 -387 -276 -2 -5
17 -23 42 -39 61 -38 85 -78 85 -141 0 -86 -40 -182 -118 -285 -42 -56 -47
-69 -44 -103 3 -32 -3 -50 -27 -86 -37 -55 -161 -165 -210 -186 -20 -9 -61
-26 -91 -40 -87 -38 -229 -73 -295 -73 -33 1 -89 7 -125 15 -98 21 -104 20
-155 -33 -29 -32 -60 -53 -87 -61 -22 -7 -59 -25 -81 -39 -48 -32 -100 -34
-150 -8 -35 19 -35 19 -113 -7 -111 -36 -203 -50 -298 -45 -102 6 -141 25
-221 109 -59 62 -79 90 -214 300 -33 53 -70 104 -80 113 -19 17 -21 16 -50
-42 -16 -32 -39 -87 -50 -120 -31 -92 -27 -237 8 -249 9 -3 26 -15 39 -26 l22
-20 0 25 c0 14 9 36 19 49 37 46 139 26 154 -30 2 -10 -9 -49 -25 -85 -16 -37
-26 -71 -23 -76 3 -5 25 -14 48 -21 51 -13 79 -37 123 -106 25 -39 34 -62 32
-91 -1 -31 9 -56 44 -114 62 -103 64 -110 31 -144 -16 -16 -41 -38 -57 -49
l-29 -21 105 -154 c114 -166 250 -386 291 -466 13 -27 38 -87 55 -134 41 -114
81 -190 126 -236 20 -20 36 -44 37 -53 0 -9 2 -38 3 -66 2 -32 16 -78 39 -129
39 -84 44 -114 25 -146 -10 -16 -8 -34 10 -97 34 -116 82 -235 107 -263 13
-14 26 -35 29 -47 10 -33 162 -150 224 -173 29 -11 85 -25 123 -30 124 -18
167 -44 206 -127 32 -66 26 -97 -23 -120 -29 -14 -32 -18 -17 -24 12 -4 -1 -9
-37 -15 -53 -8 -54 -8 -20 -14 23 -4 -12 -10 -106 -18 -130 -11 -152 -10 -260
8 -66 11 -133 20 -151 20 -17 0 -33 5 -35 10 -2 6 -50 13 -108 16 -58 3 -114
10 -125 15 -11 5 -51 12 -90 17 -68 7 -69 8 -76 39 -3 18 -2 34 3 35 9 3 -5
257 -20 345 -5 33 -26 81 -58 133 -53 90 -80 121 -134 154 -30 18 -40 35 -66
110 -23 66 -38 95 -62 115 -37 30 -54 79 -46 132 10 63 -4 106 -51 159 -36 40
-46 60 -51 101 -6 42 -16 62 -54 108 -60 70 -248 257 -253 250 -3 -2 -19 -33
-37 -69 -54 -107 -78 -140 -103 -140 -31 0 -87 36 -87 56 0 9 21 62 46 117 73
160 77 145 -67 276 -67 61 -127 110 -133 108 -27 -9 -171 -575 -151 -596 3 -3
23 -6 45 -7 53 -3 101 -34 146 -95 20 -27 44 -54 54 -59 10 -6 56 -10 102 -10
46 0 99 -4 117 -10 47 -13 89 -56 102 -103 14 -52 2 -144 -22 -168 -25 -25
-24 -76 3 -169 31 -108 29 -210 -6 -286 -47 -101 -104 -146 -187 -146 -67 0
-111 30 -145 97 -22 46 -28 75 -34 177 -8 120 -16 164 -39 206 -21 39 -44 43
-111 22 -79 -25 -121 -25 -170 0 -22 11 -52 20 -68 20 -34 0 -120 28 -181 59
-57 29 -125 93 -146 137 -16 33 -54 344 -71 575 -6 91 -8 98 -32 108 -13 7
-27 9 -31 6 -3 -4 -6 -41 -6 -83 -1 -42 -5 -85 -9 -95 -12 -26 -52 -32 -82
-12 -26 17 -27 18 -20 102 3 46 11 105 16 130 9 40 8 51 -16 99 -15 30 -30 69
-33 87 -6 30 -9 32 -51 32 -42 0 -44 -2 -69 -50 -41 -78 -78 -122 -147 -170
-77 -53 -102 -67 -129 -71 -11 -2 -47 -14 -80 -28 -35 -15 -80 -26 -107 -26
-58 0 -58 0 -18 -118 53 -160 34 -253 -66 -320 -62 -42 -113 -40 -172 7 -46
35 -53 52 -86 182 -13 52 -38 123 -55 156 l-30 61 -117 1 c-89 0 -133 6 -183
21 l-66 21 -80 -29 c-43 -16 -81 -35 -83 -41 -2 -5 13 -66 32 -133 46 -160 53
-219 32 -290 -12 -42 -27 -65 -60 -96 -51 -47 -79 -57 -138 -49 -31 4 -52 17
-91 54 -67 65 -83 106 -102 258 -8 72 -22 155 -31 185 -24 87 -116 265 -201
389 l-78 114 -60 2 c-110 3 -213 73 -269 184 -52 104 -61 184 -31 286 20 66
62 115 101 115 28 0 30 10 9 50 -8 15 -15 52 -16 82 -2 86 9 297 17 309 3 6 7
50 9 97 2 65 8 100 25 137 13 28 26 73 30 101 10 64 56 161 110 232 22 29 40
64 40 77 0 30 50 87 140 162 142 117 175 147 182 163 19 49 186 145 272 156
45 7 57 16 35 30 -21 13 8 24 75 31 36 3 69 10 72 14 8 13 52 11 113 -7 l56
-15 63 37 c34 20 62 41 62 46 0 20 -66 137 -107 190 -59 77 -86 139 -74 170
18 48 34 53 185 53 128 0 149 -3 229 -29 92 -30 168 -71 255 -138 47 -37 55
-40 78 -29 14 6 42 11 63 11 56 0 146 19 194 40 23 11 53 20 67 20 14 0 63 19
110 41 119 58 154 69 240 75 55 5 101 0 174 -15 54 -11 108 -18 120 -15 11 2
50 -2 86 -10 36 -8 93 -17 127 -21 l62 -7 26 42 c22 34 24 44 13 51 -7 5 -17
9 -22 9 -21 0 -66 55 -66 79 1 25 1 25 15 7 13 -17 15 -17 15 -3 0 9 -12 22
-27 29 -33 16 -42 54 -17 72 28 21 12 83 -31 123 -40 37 -65 87 -65 131 0 16
-7 35 -15 42 -20 17 -19 50 1 50 12 0 8 9 -15 35 -31 36 -40 76 -21 105 8 12
11 12 28 -3 10 -9 23 -17 29 -17 24 0 44 41 52 107 13 106 39 137 143 167 52
15 61 22 98 75 43 65 78 94 137 116 52 19 86 18 172 -5z"/>
</g>
</svg>
