<?xml version="1.0" standalone="no"?>
<!DOCTYPE svg PUBLIC "-//W3C//DTD SVG 20010904//EN"
 "http://www.w3.org/TR/2001/REC-SVG-20010904/DTD/svg10.dtd">
<svg version="1.0" xmlns="http://www.w3.org/2000/svg"
 width="702.000000pt" height="798.000000pt" viewBox="0 0 702.000000 798.000000"
 preserveAspectRatio="xMidYMid meet">

<g transform="translate(0.000000,798.000000) scale(0.100000,-0.100000)"
fill="#000000" stroke="none">
<path d="M3685 7273 c-94 -13 -271 -78 -334 -122 -14 -10 -44 -24 -66 -31 -48
-15 -133 -58 -157 -78 -16 -13 -20 -13 -36 1 -10 10 -27 17 -38 17 -44 0 -94
-61 -94 -115 0 -20 -5 -25 -26 -25 -34 0 -87 -32 -104 -64 -8 -17 -11 -41 -6
-72 6 -45 5 -46 -12 -31 -24 21 -66 22 -87 1 -38 -38 -56 -124 -35 -165 9 -16
7 -19 -9 -19 -28 0 -59 -37 -67 -76 -8 -46 27 -118 67 -136 35 -15 38 -27 6
-21 -89 17 -67 -154 25 -194 29 -13 38 -23 38 -40 0 -38 27 -79 60 -93 24 -10
30 -19 30 -42 0 -34 39 -78 70 -78 19 0 17 -6 -21 -47 -23 -27 -58 -82 -78
-123 -34 -72 -36 -80 -36 -182 l0 -106 -32 -22 c-53 -36 -167 -162 -224 -246
-59 -88 -106 -193 -139 -308 -14 -51 -36 -99 -66 -140 -87 -125 -136 -267
-150 -433 -4 -46 -10 -83 -14 -83 -4 0 -29 10 -56 21 -39 18 -59 20 -110 16
l-63 -6 -30 52 c-61 106 -144 166 -231 167 -53 0 -82 -14 -172 -82 l-67 -51
-268 -2 c-147 -1 -295 -7 -328 -14 l-60 -11 -33 38 c-19 20 -50 57 -70 80 -39
47 -127 119 -179 146 -68 34 -159 13 -183 -44 -27 -66 2 -115 131 -221 49 -40
89 -73 89 -74 0 -1 -22 -16 -50 -34 -76 -49 -90 -72 -90 -150 0 -210 147 -452
347 -571 32 -19 71 -45 88 -58 75 -61 174 -83 383 -83 205 -1 298 22 370 90
18 16 47 38 65 48 l32 19 55 -36 c81 -54 142 -76 269 -96 73 -11 115 -23 118
-32 3 -7 1 -73 -6 -145 -6 -73 -16 -224 -22 -337 -8 -148 -18 -234 -35 -311
-31 -136 -40 -262 -25 -371 8 -64 9 -99 0 -135 -6 -26 -11 -97 -12 -158 -1
-93 3 -119 23 -170 54 -139 233 -245 414 -245 85 0 128 21 147 73 13 38 45 52
187 82 114 24 109 27 109 -60 0 -59 5 -83 25 -122 24 -48 24 -48 6 -88 -20
-45 -23 -106 -7 -137 21 -39 -62 -102 -152 -112 -60 -8 -145 -43 -197 -83 -18
-14 -56 -59 -83 -101 l-49 -76 2 -91 3 -90 55 -6 c63 -8 88 -16 112 -37 37
-32 534 -23 554 9 3 5 23 9 44 9 21 0 42 5 45 10 3 6 24 10 45 10 21 0 42 5
46 11 5 8 35 10 101 6 55 -4 102 -2 114 3 10 6 28 14 39 20 11 5 25 10 32 10
28 0 134 50 150 71 22 26 23 96 3 123 -8 11 -15 33 -15 49 0 16 -7 56 -15 89
-16 59 -16 60 10 111 28 56 33 144 14 227 -7 33 -7 62 2 109 11 54 11 72 -3
125 -9 33 -20 69 -23 79 -7 16 3 17 113 17 l121 0 6 -57 c9 -72 33 -128 75
-177 l33 -38 -16 -46 c-10 -26 -17 -76 -17 -113 0 -57 4 -71 32 -115 28 -41
33 -58 33 -109 0 -47 5 -67 24 -94 22 -30 23 -34 8 -43 -12 -6 -17 -23 -17
-57 0 -67 17 -110 61 -156 22 -23 39 -49 39 -60 0 -42 41 -104 88 -132 86 -52
91 -53 315 -53 185 0 220 3 277 21 35 11 71 26 80 33 8 7 23 16 33 19 30 11
49 73 42 130 -9 65 -45 144 -83 185 -28 30 -70 107 -87 162 -5 15 2 40 21 79
37 71 38 145 5 210 l-23 43 21 48 c27 63 26 93 -4 159 -14 30 -24 55 -23 57 2
1 49 -6 106 -16 113 -20 168 -43 343 -142 63 -37 147 -76 185 -88 84 -26 234
-36 327 -22 180 28 361 172 430 342 20 50 22 71 21 230 0 108 -5 192 -13 220
-7 26 -15 133 -18 252 -5 197 -4 208 13 214 11 4 44 18 74 31 51 23 66 25 197
23 123 -1 147 2 180 19 80 41 95 126 41 236 -31 63 -32 66 -20 122 24 110 36
387 23 524 -16 171 -87 423 -164 574 l-30 60 12 101 c15 120 6 166 -39 209
-23 22 -41 29 -82 33 -48 3 -63 -1 -153 -46 -157 -78 -145 -82 -179 57 -36
151 -99 299 -175 411 -33 48 -84 136 -113 194 -28 59 -78 140 -109 182 l-56
75 39 77 c48 96 68 193 68 330 0 250 -90 381 -281 411 -140 22 -339 43 -358
38 -16 -4 -29 7 -60 48 -44 58 -144 138 -234 186 -70 37 -220 89 -258 89 -41
0 -43 13 -7 71 29 46 33 60 33 123 0 59 -5 81 -30 129 -86 170 -338 342 -575
392 -67 14 -277 19 -355 8z m281 -37 c182 -15 425 -142 548 -286 67 -78 91
-133 91 -205 0 -54 -5 -69 -43 -132 -24 -40 -41 -77 -37 -83 3 -5 19 -10 34
-10 49 0 184 -40 266 -79 103 -49 194 -118 255 -194 l48 -60 79 -2 c107 -2
332 -32 385 -51 192 -67 245 -429 102 -692 -19 -34 -34 -68 -34 -75 0 -7 25
-43 56 -81 30 -38 80 -117 109 -177 30 -59 83 -151 119 -206 35 -54 80 -134
100 -178 32 -75 85 -249 101 -338 4 -20 11 -39 15 -42 12 -7 112 30 202 75 44
22 93 40 109 40 74 0 115 -56 106 -144 -3 -28 -9 -78 -13 -111 -6 -54 -3 -67
20 -112 74 -146 146 -383 167 -548 13 -105 6 -385 -11 -480 -24 -128 -24 -136
9 -202 32 -64 39 -119 20 -155 -27 -50 -139 -70 -271 -48 -50 8 -64 6 -105
-12 -27 -12 -70 -29 -96 -38 l-48 -17 1 -216 c0 -118 5 -241 11 -273 51 -309
21 -463 -120 -603 -112 -112 -231 -161 -386 -161 -165 0 -161 -1 -520 183 -99
52 -122 59 -234 77 -99 16 -126 18 -133 8 -13 -22 -9 -47 17 -98 31 -61 31
-92 1 -150 l-24 -45 30 -59 c37 -74 35 -123 -11 -194 -30 -47 -31 -50 -17 -88
27 -73 66 -154 75 -154 5 0 12 -11 15 -25 4 -15 14 -25 24 -25 15 0 15 -2 2
-10 -13 -8 -13 -10 2 -10 11 0 15 -7 13 -25 -1 -17 3 -25 14 -25 14 0 14 -2 1
-10 -13 -8 -12 -10 4 -10 11 0 16 -3 13 -7 -4 -3 -2 -12 4 -19 5 -7 8 -25 5
-41 -2 -15 -5 -34 -5 -40 -1 -7 -8 -13 -16 -13 -18 0 -20 -16 -2 -23 6 -3 0
-6 -14 -6 -15 -1 -29 -7 -32 -14 -12 -32 -116 -47 -327 -47 -187 0 -207 2
-247 21 -66 32 -97 69 -116 137 -12 43 -23 62 -37 67 -11 3 -20 13 -20 21 0 8
-5 14 -11 14 -5 0 -8 4 -4 9 3 5 1 12 -4 16 -6 3 -8 12 -4 20 3 9 -1 15 -8 15
-11 0 -11 3 1 11 11 8 12 12 3 16 -10 3 -9 8 3 20 8 9 13 22 10 29 -3 8 -1 14
4 14 20 0 9 33 -21 67 -28 33 -30 39 -24 88 7 49 5 56 -28 104 -44 64 -52 110
-31 181 29 101 29 104 -9 146 -51 58 -68 98 -74 180 l-6 75 -158 -4 c-87 -2
-161 -6 -164 -9 -3 -3 6 -41 20 -84 28 -89 30 -122 13 -171 -10 -27 -9 -49 5
-121 19 -98 14 -148 -22 -205 -21 -34 -21 -41 -10 -94 6 -32 15 -85 19 -118 5
-33 14 -61 20 -63 9 -3 9 -7 -1 -13 -12 -8 -12 -10 -1 -18 10 -6 8 -10 -10
-16 l-23 -7 25 -8 c23 -7 23 -8 -10 -10 -30 -2 -32 -3 -11 -9 l24 -6 -27 -13
c-15 -6 -41 -12 -59 -12 -24 0 -28 -3 -17 -10 11 -7 5 -10 -22 -10 -21 0 -38
-4 -38 -8 0 -4 -46 -6 -101 -4 -74 3 -100 1 -95 -7 5 -8 -11 -11 -51 -12 -44
-1 -52 -3 -33 -9 20 -7 17 -8 -22 -9 -26 -1 -53 -7 -60 -14 -7 -8 -19 -12 -25
-10 -7 3 -27 -2 -45 -10 -75 -34 -508 -40 -508 -7 0 4 -20 13 -45 20 -25 7
-45 17 -45 21 0 5 -6 9 -13 9 -25 0 -57 46 -59 82 -1 39 32 102 90 169 44 51
135 95 227 110 69 11 78 15 130 64 l57 52 -16 31 c-21 41 -20 74 5 132 l21 49
-28 48 c-26 43 -29 57 -29 138 l0 90 -35 3 c-37 3 -190 -27 -272 -54 -39 -13
-49 -21 -58 -50 -6 -18 -21 -41 -33 -49 -49 -34 -224 -7 -323 50 -53 31 -110
95 -137 153 -18 39 -21 65 -21 157 1 61 6 129 13 153 9 33 9 61 0 124 -15 103
-6 258 21 368 15 59 24 143 30 274 6 105 14 226 19 270 8 66 25 261 26 301 0
5 -16 12 -35 16 -19 3 -80 14 -134 23 -127 22 -192 47 -254 96 -28 22 -55 40
-60 40 -17 0 -84 -41 -128 -79 -57 -50 -120 -70 -252 -83 -184 -19 -376 12
-445 71 -17 15 -54 40 -82 56 -113 64 -208 159 -263 263 -46 85 -83 208 -85
275 -2 58 -1 60 41 98 24 21 63 46 88 55 25 9 43 22 41 28 -2 6 -50 50 -108
99 -57 48 -114 99 -126 115 -66 79 24 144 127 92 42 -21 147 -120 222 -208
l45 -53 124 17 c96 12 175 15 347 11 122 -2 225 -1 227 4 3 4 42 35 86 68 71
54 85 61 126 61 82 0 162 -65 215 -175 l23 -46 71 6 c60 6 79 4 119 -14 95
-42 108 -31 119 106 7 89 44 229 77 296 12 23 43 74 69 112 35 52 55 98 79
180 35 121 78 206 151 305 49 65 148 167 205 209 l30 23 0 112 c0 109 1 114
38 188 28 58 53 91 99 132 53 47 60 57 49 70 -9 10 -30 16 -57 16 -53 0 -75
25 -67 76 5 32 4 34 -24 34 -45 0 -67 30 -59 80 5 33 3 40 -10 40 -53 0 -114
61 -114 114 0 31 15 35 23 6 3 -14 14 -20 31 -20 25 0 26 3 26 50 0 66 1 64
-34 75 -42 14 -71 66 -60 107 12 42 30 46 37 8 8 -39 34 -39 72 0 l29 30 -37
38 c-41 42 -46 71 -23 126 19 46 34 52 48 22 7 -17 19 -26 34 -26 28 0 68 47
58 69 -4 9 -9 30 -11 47 -4 26 0 35 27 54 17 12 51 25 75 28 43 4 43 4 38 41
-4 27 1 43 17 64 27 35 37 34 45 -3 10 -45 24 -46 61 -6 32 35 164 106 197
106 8 0 26 9 40 20 65 51 247 115 369 129 70 8 102 7 234 -3z m-463 -6553 c-7
-2 -19 -2 -25 0 -7 3 -2 5 12 5 14 0 19 -2 13 -5z"/>
</g>
</svg>
