<?xml version="1.0" standalone="no"?>
<!DOCTYPE svg PUBLIC "-//W3C//DTD SVG 20010904//EN"
 "http://www.w3.org/TR/2001/REC-SVG-20010904/DTD/svg10.dtd">
<svg version="1.0" xmlns="http://www.w3.org/2000/svg"
 width="666.000000pt" height="830.000000pt" viewBox="0 0 666.000000 830.000000"
 preserveAspectRatio="xMidYMid meet">

<g transform="translate(0.000000,830.000000) scale(0.100000,-0.100000)"
fill="#000000" stroke="none">
<path d="M3538 7860 c-52 -35 -115 -120 -160 -217 -17 -37 -50 -99 -74 -138
-23 -38 -69 -123 -104 -187 l-62 -118 -131 0 c-73 0 -187 5 -253 12 -148 14
-194 5 -224 -45 -35 -57 -23 -116 46 -213 64 -91 215 -206 348 -265 41 -18 46
-23 46 -53 0 -37 30 -81 60 -91 11 -4 20 -13 20 -21 0 -8 9 -32 19 -52 13 -25
23 -76 31 -157 16 -165 35 -257 71 -342 30 -69 30 -74 15 -98 -35 -53 -178
-116 -341 -151 -139 -29 -164 -40 -262 -112 -126 -94 -238 -233 -376 -467
-104 -178 -143 -232 -171 -239 -13 -3 -43 -30 -67 -58 -23 -29 -62 -73 -85
-98 -23 -25 -48 -57 -55 -72 l-14 -27 -74 37 c-41 20 -73 42 -72 47 0 6 27 18
59 28 97 31 216 79 235 95 38 33 14 126 -48 181 -33 29 -41 44 -57 115 -12 51
-17 98 -13 126 4 30 1 54 -9 72 -13 25 -12 27 22 50 72 46 80 118 31 262 -52
152 -88 207 -167 257 l-43 27 31 22 c42 30 60 70 60 130 0 66 -23 115 -71 150
l-38 27 31 27 c27 23 30 31 25 66 -11 82 -142 226 -255 281 -101 49 -255 63
-377 34 -203 -48 -342 -181 -436 -415 -17 -43 -22 -77 -23 -157 -1 -115 8
-135 64 -137 26 -1 30 -4 24 -21 -18 -52 -16 -123 5 -163 22 -43 74 -82 111
-82 12 0 20 -3 18 -7 -58 -115 -61 -124 -55 -207 4 -73 2 -84 -18 -112 -44
-59 -53 -140 -22 -214 6 -14 11 -59 11 -100 1 -61 5 -81 23 -107 13 -17 23
-38 23 -46 0 -9 16 -36 35 -61 19 -26 35 -51 35 -56 0 -62 136 -184 245 -221
22 -7 45 -17 52 -22 7 -5 50 -79 96 -165 146 -275 224 -375 360 -466 129 -86
236 -129 332 -134 78 -4 81 -3 142 35 34 21 94 66 133 101 52 47 75 62 90 57
34 -11 102 15 141 54 l37 37 6 -31 c4 -17 -1 -71 -10 -121 -14 -81 -14 -137 1
-176 4 -10 -7 -18 -35 -27 -63 -19 -103 -62 -175 -190 -37 -65 -96 -156 -132
-201 -83 -105 -90 -140 -44 -205 l31 -43 -35 -60 c-38 -64 -62 -153 -52 -194
21 -83 162 -213 265 -245 31 -9 58 -18 60 -19 2 -1 -6 -28 -17 -60 -24 -71
-41 -154 -41 -196 0 -35 58 -95 119 -123 l37 -16 -1 -97 c0 -53 1 -113 3 -132
1 -19 0 -115 -4 -213 l-7 -178 -31 -14 c-45 -20 -83 -56 -95 -88 -7 -17 -9
-61 -5 -111 8 -98 -8 -137 -79 -203 -63 -58 -99 -74 -199 -89 -48 -7 -105 -22
-127 -33 -53 -28 -106 -92 -121 -149 -8 -26 -19 -56 -27 -67 -7 -11 -13 -40
-13 -66 0 -65 24 -87 145 -139 45 -19 125 -31 234 -37 132 -6 235 9 387 58 50
16 113 29 140 29 80 0 245 29 278 48 18 11 36 32 43 52 17 49 16 229 -2 330
l-15 84 29 86 c42 123 45 145 27 180 -14 29 -13 34 21 103 53 107 55 118 63
297 4 99 12 181 21 205 l14 40 74 7 c118 12 122 18 153 213 14 90 48 225 57
225 11 0 56 -184 75 -300 12 -77 22 -110 38 -127 24 -26 96 -49 183 -58 60 -7
61 -8 77 -49 21 -53 26 -80 37 -196 11 -114 33 -182 99 -297 46 -80 50 -92 45
-134 -4 -37 2 -70 32 -158 l37 -111 1 -197 c2 -170 4 -202 19 -224 18 -25 85
-69 107 -69 7 0 39 -22 71 -48 33 -26 81 -56 108 -65 63 -23 252 -38 330 -27
150 21 199 38 255 89 32 30 35 67 11 174 -23 103 -51 146 -128 196 -70 46
-154 129 -179 177 -22 43 -34 122 -26 174 19 121 1 184 -60 211 l-31 14 0 95
c0 112 -15 242 -36 320 -34 122 -43 167 -44 200 0 33 4 37 64 68 84 44 92 60
77 159 -7 43 -15 86 -17 96 -3 9 1 19 8 21 7 2 36 11 63 20 68 22 75 21 70
-11 -3 -16 -9 -111 -15 -213 -15 -267 -14 -262 -63 -286 -63 -30 -87 -79 -87
-178 0 -61 5 -86 21 -116 41 -72 22 -70 549 -70 l472 0 33 33 c50 50 69 142
44 218 -15 43 -64 95 -97 104 l-25 6 7 87 c7 85 14 211 36 577 11 204 5 271
-35 344 -24 43 -26 58 -28 177 -2 137 2 155 109 481 22 69 53 240 64 365 18
194 -4 331 -81 499 l-31 67 22 29 c12 17 24 47 27 69 4 35 -2 50 -55 133 -67
107 -96 141 -122 141 -20 0 -73 76 -218 316 -134 220 -243 340 -367 402 -22
11 -84 34 -138 50 -127 40 -216 90 -360 202 -24 19 -114 158 -105 164 1 1 20
13 40 25 20 12 40 30 43 40 3 11 21 29 40 42 32 23 75 84 75 108 0 7 16 27 35
47 26 26 35 43 35 68 l0 33 63 7 c262 27 477 174 477 326 0 89 -69 176 -187
238 -99 51 -180 75 -318 97 l-110 17 3 178 c5 220 -5 258 -82 335 -94 93 -324
232 -424 255 -42 10 -69 10 -131 0 -69 -12 -83 -11 -120 3 -67 27 -139 22
-193 -13z m184 -27 c41 -14 58 -15 126 -4 125 19 190 -3 380 -128 120 -79 180
-135 205 -191 20 -44 22 -129 13 -405 l-1 -39 124 -18 c200 -28 344 -84 425
-166 74 -73 85 -153 33 -231 -58 -87 -245 -170 -427 -191 -52 -6 -96 -13 -99
-16 -3 -3 0 -14 7 -24 7 -11 12 -28 12 -39 0 -21 -44 -61 -67 -61 -9 0 -12 -7
-7 -24 8 -34 -21 -84 -60 -102 -18 -9 -37 -28 -43 -44 -11 -30 -76 -70 -113
-70 -27 0 -25 -12 6 -41 14 -13 39 -46 55 -74 41 -72 87 -115 212 -198 91 -61
133 -81 224 -111 133 -42 191 -70 255 -124 86 -72 142 -145 248 -322 35 -58
96 -155 136 -217 61 -93 77 -112 100 -115 24 -2 39 -19 91 -102 35 -55 63
-109 63 -120 0 -12 -11 -38 -25 -58 -14 -20 -25 -43 -25 -51 0 -8 18 -52 39
-98 62 -133 74 -192 74 -359 0 -194 -25 -330 -110 -600 l-67 -215 1 -144 c2
-135 4 -146 27 -182 53 -80 55 -139 16 -704 -5 -71 -12 -174 -15 -227 l-6 -97
28 -7 c90 -23 128 -121 86 -225 -27 -69 -25 -69 -508 -69 -465 0 -480 2 -508
57 -38 75 -27 185 25 228 16 14 37 25 46 25 38 0 40 13 56 255 9 132 18 265
21 296 2 31 2 59 -1 61 -2 3 -37 -8 -77 -23 -40 -16 -92 -34 -115 -40 -32 -7
-42 -14 -38 -25 12 -33 38 -194 33 -208 -3 -7 -38 -31 -77 -52 l-72 -39 6 -70
c3 -38 20 -119 37 -180 26 -96 31 -132 36 -282 l6 -172 28 -6 c16 -4 38 -18
50 -33 19 -24 20 -34 14 -133 -6 -83 -4 -118 8 -160 22 -74 108 -177 196 -234
85 -54 104 -80 125 -174 26 -116 23 -136 -23 -165 -65 -41 -169 -61 -310 -58
-162 2 -221 19 -302 84 -34 28 -77 55 -96 60 -18 5 -45 19 -59 32 -24 20 -28
33 -35 112 -4 49 -5 141 -2 204 5 112 4 118 -31 219 -38 109 -42 140 -27 170
8 13 -1 36 -36 97 -88 153 -123 262 -123 387 0 56 -41 185 -62 199 -7 4 -28 8
-46 8 -45 0 -166 28 -186 43 -11 8 -21 45 -31 107 -28 171 -96 420 -116 420
-5 0 -14 -12 -20 -27 -19 -49 -68 -257 -85 -361 -10 -56 -23 -107 -29 -112 -6
-5 -49 -15 -95 -22 l-84 -13 -20 -50 c-15 -41 -18 -73 -17 -173 2 -147 -12
-216 -69 -339 -39 -84 -41 -89 -25 -115 18 -31 13 -64 -29 -187 -25 -72 -25
-75 -11 -159 17 -95 20 -278 5 -316 -16 -44 -72 -60 -260 -75 -64 -5 -136 -19
-185 -35 -170 -55 -315 -69 -465 -46 -101 16 -200 54 -228 88 -16 21 -15 68 2
100 8 15 17 38 20 52 3 14 18 44 33 68 37 57 106 91 202 99 108 9 212 76 269
173 24 41 26 52 24 148 l-1 103 37 35 c23 21 47 34 64 34 25 0 27 3 33 63 3
34 7 189 9 345 l2 283 -57 30 c-32 17 -67 42 -80 55 -21 22 -22 27 -10 95 6
39 20 98 31 130 31 90 29 96 -34 109 -90 18 -217 114 -258 194 -28 56 -19 111
37 209 l45 79 -35 41 c-19 22 -35 52 -35 65 0 14 21 50 48 86 68 86 124 170
161 244 47 94 92 138 159 159 32 9 58 18 60 19 2 1 -5 25 -14 54 -15 45 -16
63 -5 129 13 88 15 291 3 291 -5 0 -30 -27 -55 -60 -61 -77 -89 -95 -149 -93
-46 1 -51 -2 -128 -71 -152 -137 -217 -155 -363 -98 -167 65 -300 168 -395
305 -28 41 -92 150 -142 243 -50 93 -97 174 -103 180 -7 6 -33 18 -59 27 -96
32 -210 126 -224 185 -4 15 -22 47 -40 71 -19 24 -34 53 -34 63 0 11 -12 35
-26 54 -24 31 -26 39 -20 94 5 45 3 67 -9 89 -38 75 -27 158 29 210 20 19 22
27 15 59 -25 106 3 203 80 277 22 21 41 47 41 57 0 23 -6 23 -37 -2 -31 -24
-99 -27 -131 -4 -76 53 -65 189 17 224 18 7 30 18 28 24 -4 11 -7 11 -98 1
-77 -9 -83 1 -77 113 5 92 27 152 54 152 11 0 12 -4 5 -19 -15 -28 -33 -152
-27 -186 6 -29 8 -30 46 -27 54 5 61 20 9 18 l-42 -1 6 70 c6 66 23 135 34
135 3 0 18 -9 34 -21 16 -11 34 -19 40 -17 10 3 -75 68 -90 68 -44 0 26 127
117 211 107 100 232 149 382 149 91 -1 145 -12 219 -48 95 -46 231 -197 231
-256 0 -8 -28 -34 -62 -58 -65 -45 -93 -88 -46 -72 47 17 88 9 120 -24 27 -26
32 -40 36 -91 4 -58 3 -62 -31 -96 -27 -27 -43 -35 -71 -35 -29 0 -36 -4 -36
-20 0 -15 17 -27 63 -49 106 -50 140 -93 197 -256 30 -89 38 -161 20 -194 -5
-10 -32 -28 -60 -40 -27 -12 -50 -23 -50 -24 0 -2 11 -18 25 -37 26 -35 32
-69 15 -86 -10 -10 -4 -40 32 -186 6 -25 22 -48 48 -69 42 -34 63 -74 58 -111
-4 -28 -35 -44 -200 -99 -68 -23 -127 -45 -131 -49 -25 -22 66 -92 175 -134
84 -33 92 -33 84 0 -5 17 -1 35 10 53 35 52 167 190 189 195 24 6 85 96 201
291 116 196 242 345 369 436 73 53 83 57 212 83 181 38 292 87 367 165 l39 40
-35 78 c-19 43 -40 99 -47 125 -15 63 -41 262 -41 318 0 28 -8 56 -20 75 -11
17 -20 45 -20 63 0 27 -4 32 -24 32 -14 0 -32 7 -40 16 -20 20 -21 54 -1 54 8
0 15 7 15 15 0 8 -36 31 -86 55 -184 86 -330 207 -380 315 -30 64 -30 90 2
122 l26 26 126 -9 c70 -5 197 -9 282 -9 l155 0 34 65 c18 36 66 124 106 195
40 72 94 172 120 223 73 142 162 221 230 205 11 -2 41 -12 67 -20z"/>
</g>
</svg>
