<?xml version="1.0" standalone="no"?>
<!DOCTYPE svg PUBLIC "-//W3C//DTD SVG 20010904//EN"
 "http://www.w3.org/TR/2001/REC-SVG-20010904/DTD/svg10.dtd">
<svg version="1.0" xmlns="http://www.w3.org/2000/svg"
 width="702.000000pt" height="418.000000pt" viewBox="0 0 702.000000 418.000000"
 preserveAspectRatio="xMidYMid meet">

<g transform="translate(0.000000,418.000000) scale(0.100000,-0.100000)"
fill="#000000" stroke="none">
<path d="M5 2090 c0 -1152 1 -1624 2 -1048 2 577 2 1519 0 2095 -1 577 -2 105
-2 -1047z"/>
<path d="M3187 4020 c-75 -23 -115 -51 -203 -138 -83 -82 -132 -152 -165 -237
-21 -54 -23 -77 -25 -237 -1 -144 -5 -181 -18 -199 -9 -13 -16 -42 -16 -66 0
-23 -5 -45 -11 -49 -25 -15 14 -133 52 -157 10 -6 19 -20 19 -29 0 -9 9 -25
19 -35 11 -10 21 -31 23 -48 2 -24 11 -34 45 -49 23 -11 47 -30 54 -43 7 -12
21 -25 31 -29 29 -9 12 -22 -46 -34 -35 -7 -72 -25 -107 -50 -29 -22 -56 -40
-60 -40 -4 0 -34 -24 -66 -53 -32 -29 -74 -63 -94 -75 -20 -12 -48 -37 -62
-55 -14 -17 -42 -40 -63 -50 -22 -10 -51 -25 -67 -32 -24 -13 -36 -11 -104 11
-43 14 -83 30 -90 35 -6 6 -24 42 -39 81 -34 91 -81 140 -155 163 l-56 18 -26
111 c-14 61 -33 153 -42 205 -18 107 -26 127 -55 136 -17 5 -20 15 -20 64 0
61 -18 91 -55 91 -35 0 -212 -103 -375 -217 -341 -240 -533 -345 -913 -499
l-108 -44 -29 22 c-59 43 -183 4 -265 -83 -49 -52 -61 -91 -52 -173 6 -63 78
-249 160 -411 70 -141 306 -573 443 -812 184 -321 214 -353 329 -353 82 0 149
33 360 179 281 195 337 226 665 366 261 111 521 236 549 264 46 46 21 100
-151 325 -42 55 -75 102 -73 104 6 6 69 -30 102 -59 39 -33 93 -46 137 -31
139 48 152 56 201 111 6 7 44 34 85 61 l75 49 17 -65 c14 -59 15 -71 2 -107
-9 -26 -12 -57 -8 -84 l6 -43 -43 0 c-87 0 -166 -63 -176 -141 -8 -59 16 -89
70 -89 24 0 48 5 55 12 6 6 14 9 17 6 3 -3 -21 -105 -55 -227 -33 -123 -60
-238 -60 -258 0 -43 45 -93 84 -93 35 0 33 -21 -4 -48 -23 -17 -30 -30 -30
-56 0 -18 -7 -50 -15 -71 -9 -20 -15 -46 -13 -58 3 -20 -2 -22 -72 -28 -85 -6
-128 -25 -166 -73 -34 -42 -64 -120 -64 -167 0 -39 25 -69 75 -90 50 -20 357
-24 446 -6 41 9 104 18 142 22 37 3 78 11 92 17 32 15 55 66 55 125 0 27 6 58
14 68 23 33 49 154 43 198 -9 63 18 157 82 290 65 135 94 177 120 177 21 0
151 -221 151 -257 0 -12 7 -49 16 -84 15 -57 15 -64 -2 -100 -14 -32 -15 -46
-6 -77 5 -20 13 -56 17 -79 4 -23 13 -47 21 -54 12 -9 14 -27 9 -78 -11 -114
22 -143 180 -156 39 -3 115 -13 170 -22 118 -19 332 -13 409 11 72 22 96 49
96 107 0 26 -4 50 -9 54 -5 3 -12 18 -16 34 -9 42 -68 106 -116 125 -27 11
-64 16 -110 14 -37 -1 -71 1 -75 4 -3 4 -8 26 -9 50 -6 78 -22 129 -50 158
-25 26 -29 40 -35 112 -4 46 -21 131 -39 190 l-31 107 30 121 c19 76 30 142
29 178 -1 31 6 86 16 122 19 70 15 201 -6 226 -16 19 -49 17 -71 -3 -17 -15
-18 -14 -18 30 0 61 34 121 64 113 77 -22 253 -66 264 -66 7 0 37 -11 67 -25
51 -24 60 -26 155 -19 108 7 135 19 169 74 9 15 43 50 77 77 33 28 102 101
153 162 l93 111 61 0 c34 0 78 4 99 9 38 9 168 88 168 102 0 5 6 9 14 9 8 0
28 11 44 25 17 14 35 25 40 25 6 0 27 15 46 34 30 28 36 40 36 74 0 38 3 42
44 61 53 26 212 67 295 77 60 6 65 5 156 -41 86 -43 100 -47 149 -43 98 8 462
211 487 270 15 36 5 70 -32 112 l-30 35 42 21 c85 44 128 117 129 218 0 77
-19 121 -72 166 -48 42 -131 66 -224 66 -74 0 -130 -13 -234 -53 -36 -14 -92
-30 -125 -37 -223 -44 -325 -113 -341 -233 -9 -62 10 -127 51 -174 33 -38 33
-39 14 -62 -11 -13 -19 -36 -19 -52 0 -25 -4 -29 -37 -34 -33 -6 -226 -45
-305 -62 -21 -4 -32 1 -51 22 -17 20 -32 27 -53 26 -16 -1 -82 -2 -146 -2 -65
1 -129 -4 -144 -9 -42 -16 -144 -121 -175 -180 -31 -60 -56 -84 -202 -184
l-97 -68 -118 -3 -117 -3 -131 64 c-72 35 -138 64 -147 64 -9 0 -37 14 -64 30
-34 21 -75 35 -138 46 -50 8 -91 17 -93 19 -2 2 6 21 17 44 30 58 52 164 51
240 -2 90 -2 91 15 91 23 0 55 41 55 73 0 19 9 36 29 53 43 36 54 79 42 165
-8 59 -7 76 5 93 21 30 17 61 -10 93 -21 25 -32 28 -98 31 l-74 4 -34 55
c-153 241 -188 271 -384 337 -99 33 -247 36 -339 6z m341 -49 c45 -17 100 -40
123 -52 62 -31 131 -106 179 -192 23 -42 46 -80 51 -83 6 -3 14 -16 19 -29 7
-19 18 -23 77 -29 94 -10 111 -15 118 -37 9 -29 -10 -55 -67 -87 l-53 -31 30
-11 c22 -8 35 -9 47 -1 24 15 28 14 28 -8 0 -10 -13 -33 -29 -50 -28 -30 -28
-31 -7 -31 12 0 27 5 34 12 18 18 16 -16 -3 -53 -11 -19 -26 -32 -45 -36 -17
-3 -30 -7 -30 -9 0 -1 5 -15 10 -29 12 -33 -3 -65 -30 -65 -32 0 -45 -38 -42
-125 3 -89 -13 -165 -54 -252 -15 -30 -22 -58 -18 -63 5 -5 55 -18 112 -29 98
-20 154 -40 166 -60 4 -5 21 -12 39 -16 17 -4 93 -36 167 -72 74 -36 144 -65
155 -64 11 1 35 1 53 1 177 1 168 -2 383 156 75 56 90 72 118 129 22 45 49 79
88 112 l56 48 116 0 c64 1 128 4 142 9 29 8 59 -13 59 -41 0 -20 51 -15 255
26 88 18 170 34 182 37 18 3 20 9 16 43 -5 40 7 62 53 90 15 9 16 13 6 18 -29
12 -86 69 -98 100 -28 67 -11 145 42 195 42 39 107 65 232 93 61 13 136 35
168 48 157 66 300 66 396 0 48 -32 68 -77 68 -150 0 -49 -5 -68 -30 -107 -25
-39 -43 -53 -105 -83 l-75 -35 56 -53 c78 -73 75 -84 -51 -163 -55 -34 -149
-87 -209 -117 -138 -69 -165 -71 -270 -16 -41 22 -90 43 -109 46 -41 8 -181
-15 -302 -50 -107 -31 -145 -61 -145 -114 0 -35 -31 -81 -55 -81 -7 0 -20 -9
-30 -20 -10 -11 -27 -22 -39 -26 -11 -4 -36 -20 -54 -35 -18 -16 -38 -29 -44
-29 -7 0 -25 -12 -41 -27 -26 -26 -35 -28 -125 -30 l-97 -2 -40 -48 c-112
-133 -167 -192 -226 -242 -35 -30 -70 -66 -77 -81 -20 -40 -47 -51 -145 -56
-71 -3 -95 -1 -114 12 -19 12 -252 77 -400 111 -19 4 -23 1 -23 -18 0 -13 -9
-37 -20 -54 -14 -20 -20 -47 -20 -83 0 -29 -7 -67 -16 -84 -12 -24 -14 -46 -9
-92 5 -55 4 -64 -14 -80 -25 -23 -29 -84 -6 -93 9 -3 18 -4 20 -1 2 2 14 44
26 93 13 50 31 101 41 114 10 13 18 28 18 33 0 5 8 20 17 35 16 23 17 24 24 7
14 -35 9 -138 -10 -211 -11 -43 -17 -89 -14 -115 4 -30 -5 -81 -27 -166 l-33
-122 37 -124 c22 -77 36 -144 36 -179 0 -67 12 -103 45 -133 16 -15 25 -34 25
-53 0 -17 5 -42 12 -56 9 -21 9 -31 0 -46 -15 -24 -10 -34 31 -56 22 -11 52
-16 97 -14 75 2 143 -26 166 -69 33 -62 45 -101 42 -131 -3 -30 -8 -35 -53
-52 -74 -28 -276 -35 -419 -14 -61 9 -147 21 -191 26 -106 13 -119 27 -113
127 4 58 2 75 -14 93 -10 13 -18 35 -18 48 0 14 -5 43 -12 64 -10 33 -9 42 6
58 18 20 18 22 -12 181 -9 49 -86 205 -133 270 -23 32 -36 40 -60 40 -40 0
-66 -28 -121 -130 -89 -166 -147 -345 -125 -382 8 -13 8 -29 -1 -63 -7 -25
-12 -54 -12 -64 0 -10 -9 -30 -20 -44 -15 -19 -20 -40 -20 -84 0 -33 -6 -67
-13 -77 -15 -20 -73 -35 -136 -36 -24 0 -70 -7 -103 -16 -77 -20 -311 -23
-389 -6 -109 25 -116 51 -49 182 27 53 71 74 168 81 95 6 123 22 101 57 -10
16 -10 26 -1 47 7 14 12 37 12 51 0 36 17 63 46 74 15 6 24 17 24 31 0 11 7
48 15 82 8 34 33 152 55 262 22 110 43 211 45 225 5 22 4 23 -5 5 -5 -11 -32
-119 -60 -239 -29 -127 -57 -228 -67 -238 -34 -38 -93 -12 -93 40 0 15 27 126
60 247 75 274 73 312 -19 264 -33 -17 -44 -19 -56 -9 -26 21 -18 66 18 103 43
46 104 63 170 48 27 -6 53 -11 58 -11 17 0 9 27 -16 50 -33 31 -40 76 -20 124
16 37 15 44 -6 130 -12 50 -25 95 -29 99 -10 11 -198 -117 -233 -158 -15 -19
-41 -37 -60 -41 -17 -3 -51 -16 -73 -27 -52 -25 -105 -17 -143 21 -14 14 -55
41 -91 58 -36 18 -87 48 -114 68 -28 19 -52 34 -54 31 -6 -5 70 -114 173 -250
132 -173 177 -242 173 -268 -4 -28 -202 -128 -557 -282 -276 -119 -405 -187
-563 -297 -306 -212 -354 -239 -426 -239 -89 -1 -112 18 -207 172 -92 148
-452 802 -535 970 -101 207 -160 364 -160 431 0 62 25 107 83 147 84 57 154
66 186 25 l20 -26 163 67 c202 84 374 165 505 238 95 54 163 98 479 313 133
90 268 163 280 151 4 -4 9 -41 12 -82 4 -68 6 -75 23 -70 24 8 33 -15 49 -121
13 -92 58 -291 72 -316 5 -10 14 -18 21 -18 7 0 29 -5 50 -11 61 -16 102 -61
133 -142 15 -40 34 -80 42 -90 9 -9 58 -31 110 -47 l94 -31 82 39 c56 27 90
51 109 76 16 20 46 45 67 56 21 11 50 35 64 53 14 19 48 46 75 60 26 15 54 34
61 43 18 20 57 40 98 47 39 8 172 69 172 79 0 5 -13 8 -28 8 -15 0 -32 4 -38
9 -5 5 -22 11 -39 13 -24 2 -31 8 -33 31 -3 21 -8 27 -28 27 -14 0 -34 5 -45
10 -20 11 -27 40 -9 40 6 0 10 12 10 26 0 20 -4 24 -19 19 -27 -8 -54 21 -41
45 14 27 13 30 -14 30 -27 0 -53 34 -63 80 -5 29 8 42 22 20 9 -15 51 -12 65
5 10 12 9 16 -6 21 -54 17 -64 24 -64 49 0 14 8 37 17 51 14 22 17 55 18 203
0 160 3 181 24 236 45 114 168 257 273 319 107 62 255 69 396 17z"/>
</g>
</svg>
