<?xml version="1.0" standalone="no"?>
<!DOCTYPE svg PUBLIC "-//W3C//DTD SVG 20010904//EN"
 "http://www.w3.org/TR/2001/REC-SVG-20010904/DTD/svg10.dtd">
<svg version="1.0" xmlns="http://www.w3.org/2000/svg"
 width="680.000000pt" height="954.000000pt" viewBox="0 0 680.000000 954.000000"
 preserveAspectRatio="xMidYMid meet">

<g transform="translate(0.000000,954.000000) scale(0.100000,-0.100000)"
fill="#000000" stroke="none">
<path d="M3459 8604 c-8 -11 -23 -24 -34 -30 -11 -6 -22 -24 -25 -40 -3 -17
-12 -30 -23 -32 -10 -2 -59 14 -110 35 -87 36 -98 38 -198 38 -105 0 -108 -1
-187 -41 -61 -31 -82 -38 -86 -28 -9 22 -63 16 -106 -12 -38 -25 -80 -92 -80
-126 0 -11 -13 -18 -38 -23 -48 -8 -110 -43 -134 -76 -11 -14 -21 -44 -22 -66
-1 -30 -11 -51 -38 -83 -20 -23 -44 -63 -52 -88 -23 -65 -21 -170 4 -233 23
-57 20 -71 -8 -46 -22 20 -63 22 -80 5 -7 -7 -12 -37 -12 -67 0 -65 23 -110
68 -137 29 -16 30 -20 25 -69 -9 -86 30 -165 99 -201 l29 -15 -25 -20 c-52
-41 -24 -124 55 -162 28 -13 50 -32 56 -48 6 -16 30 -35 67 -53 l58 -28 -37
-36 c-20 -20 -47 -57 -61 -83 -13 -27 -40 -61 -61 -76 -20 -15 -75 -64 -122
-109 -99 -93 -159 -134 -102 -69 54 62 65 98 64 208 l-1 98 39 25 c31 19 39
30 39 55 0 25 -6 32 -37 46 -21 8 -55 30 -75 49 -67 60 -161 68 -244 19 -37
-22 -94 -88 -94 -111 0 -5 -21 -32 -48 -59 -26 -28 -63 -69 -83 -93 l-36 -43
-79 43 c-67 36 -86 42 -139 42 -40 0 -74 -7 -100 -20 -34 -16 -40 -24 -43 -55
-3 -30 2 -41 31 -66 31 -27 170 -93 196 -93 21 0 19 -18 -4 -50 -31 -42 -31
-61 -2 -88 28 -27 39 -27 117 -3 l62 20 57 -27 c68 -33 87 -53 65 -67 -171
-110 -250 -227 -339 -505 -105 -328 -119 -369 -166 -466 -34 -71 -49 -114 -49
-142 0 -37 -4 -44 -44 -71 -54 -38 -71 -81 -62 -157 5 -43 2 -61 -14 -91 -15
-28 -20 -57 -20 -108 0 -77 19 -121 65 -151 24 -16 25 -19 25 -128 0 -101 12
-225 54 -546 29 -229 29 -243 6 -327 -37 -130 -49 -186 -50 -221 0 -24 -14
-50 -59 -105 -126 -156 -154 -244 -206 -647 -49 -386 -111 -608 -221 -791 -42
-70 -46 -129 -12 -153 12 -9 30 -16 39 -16 9 0 19 -9 22 -19 2 -11 23 -31 45
-45 22 -14 43 -30 47 -36 3 -5 15 -10 27 -10 11 0 29 -11 40 -25 11 -15 30
-25 44 -25 14 0 32 -7 40 -15 9 -8 26 -15 40 -15 13 0 24 -4 24 -9 0 -12 31
-22 81 -26 21 -1 46 -8 54 -15 26 -22 101 8 141 57 34 41 34 42 35 150 0 77 7
137 24 208 13 55 24 96 24 90 3 -62 -22 -362 -34 -400 -31 -103 -7 -175 57
-175 17 0 40 -8 50 -17 16 -14 24 -15 52 -5 18 7 50 12 72 12 22 0 46 6 52 12
7 7 28 11 47 10 23 -3 40 3 54 17 12 12 30 21 40 21 11 0 23 5 26 10 3 6 14
10 24 10 10 0 26 9 36 20 33 36 42 25 48 -63 5 -78 4 -83 -19 -105 -34 -32
-38 -59 -24 -171 15 -123 6 -175 -53 -284 -40 -76 -75 -115 -191 -210 -70 -58
-116 -160 -116 -258 0 -97 44 -130 219 -160 140 -24 281 -24 400 1 52 11 106
20 120 20 17 0 70 31 151 90 69 50 138 100 153 111 28 20 28 23 23 87 -3 37
-10 126 -15 197 -5 72 -12 155 -16 185 -4 30 -2 82 4 115 34 194 35 205 22
241 -11 29 -10 46 5 109 16 69 16 78 2 108 -14 29 -14 38 -2 73 44 127 56 193
63 364 7 156 11 187 40 285 l33 110 67 32 c79 37 88 53 101 167 5 45 17 126
27 181 22 126 31 102 32 -90 1 -164 5 -172 86 -206 l55 -23 0 -73 c0 -53 -8
-98 -30 -165 -53 -167 -59 -273 -24 -457 13 -69 12 -75 -6 -99 -22 -27 -26
-89 -11 -156 8 -31 6 -46 -11 -78 -20 -37 -20 -44 -8 -161 12 -116 12 -126 -9
-210 -13 -49 -24 -125 -26 -170 -5 -93 -13 -145 -26 -153 -5 -3 -9 -41 -9 -86
0 -65 4 -85 21 -109 20 -28 22 -29 113 -29 50 0 96 4 101 9 16 15 63 1 68 -20
5 -20 46 -26 62 -10 18 18 178 15 212 -2 17 -9 71 -29 120 -44 85 -26 96 -27
325 -27 177 -1 240 2 250 11 6 7 31 13 54 13 23 0 46 6 52 12 14 18 52 137 52
164 0 37 -85 203 -120 234 -32 28 -116 62 -190 75 -100 18 -141 37 -211 95
-39 32 -79 70 -90 84 -17 21 -17 25 -3 30 13 5 15 16 10 54 -9 68 -9 83 -1
122 4 20 2 46 -4 60 -19 42 -52 95 -66 103 -10 5 -11 15 -4 40 14 50 11 99
-10 133 -19 30 -18 32 5 135 13 57 28 166 33 241 8 108 15 149 35 196 25 58
39 111 51 184 5 35 11 40 78 71 106 50 112 59 112 177 0 61 5 103 12 112 8 10
13 78 15 219 3 149 7 213 18 236 12 28 11 43 -7 139 -14 67 -30 118 -43 136
-16 21 -23 49 -27 101 l-5 72 56 43 c92 69 90 43 21 472 -42 252 -55 341 -69
441 l-4 37 57 -40 c42 -29 72 -41 116 -48 33 -4 75 -16 93 -25 41 -21 153 -45
208 -45 23 0 56 5 75 12 51 17 141 83 166 122 12 19 55 56 95 82 40 26 117 80
170 120 l97 73 52 -34 c174 -118 409 -67 485 105 11 25 33 45 73 69 67 39 91
73 91 131 0 27 8 53 23 73 15 22 22 47 23 82 0 28 8 64 17 82 22 41 22 97 0
133 -14 24 -15 34 -5 55 19 42 14 89 -14 130 -19 28 -21 36 -9 31 41 -16 265
-38 327 -32 212 19 298 84 298 225 0 105 -65 238 -223 460 -144 202 -270 314
-408 362 -90 31 -259 38 -363 14 -101 -22 -264 -105 -441 -225 -225 -152 -314
-254 -315 -359 0 -133 122 -221 426 -307 112 -31 131 -39 127 -54 -3 -11 -18
-20 -43 -24 -58 -9 -130 -63 -176 -132 -41 -61 -94 -206 -94 -256 0 -35 -47
-67 -163 -114 -73 -30 -84 -32 -102 -19 -11 8 -55 34 -97 57 -76 42 -77 43
-83 89 -6 44 -42 116 -86 170 -11 14 -52 120 -90 235 -39 114 -80 231 -92 259
-33 79 -95 171 -142 213 -44 38 -44 39 -23 56 11 10 51 28 88 41 37 13 76 28
87 34 15 7 38 7 81 -1 55 -10 64 -10 82 7 27 24 25 47 -5 83 l-25 30 67 22
c94 30 151 65 159 97 9 33 -3 52 -52 80 -50 29 -108 23 -214 -22 l-76 -32 -88
86 c-48 47 -102 108 -119 136 -53 83 -125 116 -219 100 -31 -6 -54 -19 -82
-46 -21 -22 -44 -39 -52 -39 -7 0 -25 -10 -40 -23 -39 -33 -28 -72 24 -88 l38
-11 -1 -101 c0 -113 11 -142 84 -221 41 -44 38 -43 -91 31 -56 32 -91 61 -127
106 -28 34 -67 81 -88 105 -26 31 -34 47 -27 56 86 118 118 171 144 236 32 85
60 223 60 304 l0 51 51 23 c50 23 51 24 47 62 -3 38 -3 39 38 49 23 6 56 23
74 37 27 23 31 32 28 68 -3 38 -5 41 -37 46 l-35 5 46 29 c61 38 91 92 86 155
-2 35 2 52 15 66 24 26 40 90 32 135 -12 72 -73 93 -105 36 -27 -49 -40 -44
-40 16 -1 100 -62 187 -170 242 -59 30 -65 36 -71 70 -9 55 -43 86 -95 86 -24
0 -46 -5 -49 -10 -4 -6 -22 7 -43 30 -44 49 -100 64 -123 34z m86 -51 c33 -34
45 -63 45 -110 l0 -36 33 26 c20 15 32 33 32 48 0 29 11 38 36 32 24 -7 35
-26 43 -79 7 -38 10 -41 71 -68 112 -49 175 -144 175 -263 l0 -44 37 3 c29 2
42 10 60 37 l22 33 12 -25 c18 -40 3 -96 -37 -133 -28 -25 -32 -33 -20 -37 23
-9 20 -75 -4 -115 -13 -22 -39 -42 -74 -58 -44 -20 -53 -28 -49 -45 7 -25 41
-49 70 -49 30 0 29 -11 -3 -43 -24 -24 -83 -42 -115 -35 -18 4 -24 -43 -9 -71
9 -18 5 -23 -39 -43 -55 -25 -61 -37 -61 -115 0 -109 -47 -281 -103 -374 -14
-24 -48 -72 -77 -107 l-51 -63 70 -77 c39 -42 83 -93 98 -113 35 -46 92 -85
212 -145 90 -45 94 -47 120 -31 38 23 36 40 -5 62 -48 26 -120 107 -135 152
-7 23 -10 65 -6 113 7 89 -4 114 -54 124 -40 8 -33 28 13 39 23 5 39 17 47 33
24 54 142 70 200 27 14 -11 40 -39 56 -63 17 -23 74 -89 128 -145 l98 -103 87
39 c116 51 152 57 197 29 19 -12 35 -26 35 -31 0 -17 -65 -49 -154 -76 -48
-15 -91 -33 -93 -41 -3 -7 12 -31 33 -53 21 -21 35 -42 31 -45 -4 -4 -32 -2
-62 4 -52 11 -61 10 -131 -18 -41 -17 -82 -30 -92 -30 -9 -1 -39 -21 -67 -46
-40 -36 -47 -47 -35 -54 40 -22 98 -76 128 -118 49 -68 75 -130 158 -376 58
-176 82 -233 118 -285 52 -76 66 -109 66 -156 0 -31 5 -36 78 -75 42 -23 92
-53 109 -67 32 -23 34 -23 81 -9 76 22 199 82 227 110 15 15 25 36 25 54 0 36
35 153 62 205 45 90 143 165 200 153 24 -5 30 -2 39 22 6 15 13 41 16 58 l5
30 -146 42 c-306 87 -416 158 -416 268 0 93 92 194 311 340 146 97 284 172
364 197 205 64 415 27 567 -101 150 -126 395 -490 428 -636 22 -100 -29 -180
-136 -213 -83 -25 -273 -22 -414 6 -133 27 -130 27 -130 -9 0 -16 4 -30 10
-30 5 0 25 -14 45 -31 41 -36 46 -77 16 -123 l-20 -30 25 -29 c32 -38 32 -86
-2 -126 -20 -24 -23 -34 -15 -50 18 -33 12 -69 -18 -103 -23 -28 -27 -37 -19
-60 16 -47 -12 -92 -81 -130 -47 -25 -64 -41 -75 -70 -38 -93 -121 -149 -231
-156 -85 -5 -167 22 -226 75 -24 21 -43 32 -51 27 -7 -4 -69 -49 -138 -99 -69
-51 -148 -107 -177 -124 -29 -18 -61 -47 -73 -66 -40 -65 -144 -124 -217 -125
-49 0 -165 25 -202 45 -15 7 -53 18 -86 24 -73 14 -126 49 -174 118 -20 29
-39 52 -43 53 -22 1 4 -227 72 -633 27 -164 50 -310 50 -325 0 -29 -34 -67
-97 -111 -30 -20 -33 -27 -32 -69 1 -80 14 -149 32 -166 19 -19 30 -59 48
-168 12 -71 11 -79 -6 -98 -17 -18 -18 -34 -11 -211 6 -172 5 -194 -10 -217
-14 -22 -17 -45 -15 -114 1 -47 -2 -95 -8 -106 -6 -10 -48 -36 -94 -57 l-84
-38 -6 -57 c-4 -32 -22 -101 -41 -154 -30 -82 -37 -118 -45 -229 -5 -73 -21
-185 -36 -250 -24 -107 -25 -120 -11 -135 29 -33 34 -64 19 -121 -15 -55 -15
-55 11 -74 14 -10 26 -23 26 -29 0 -5 9 -21 20 -35 31 -39 22 -103 -17 -126
-11 -7 -7 -15 18 -38 33 -31 34 -53 3 -55 -10 -1 -23 -2 -27 -3 -18 -3 42 -88
103 -143 90 -83 131 -105 241 -127 112 -23 144 -35 185 -66 32 -24 70 -90 66
-112 -2 -7 2 -13 7 -13 6 0 8 -6 5 -14 -3 -7 1 -20 9 -27 7 -8 12 -20 9 -27
-2 -6 2 -12 10 -12 8 0 9 -3 3 -8 -5 -4 -11 -18 -11 -32 -1 -14 -2 -33 -3 -43
0 -10 -11 -22 -23 -27 -13 -5 -17 -9 -10 -9 6 -1 12 -5 12 -11 0 -5 -22 -10
-50 -10 -27 0 -50 -4 -50 -9 0 -14 -106 -24 -257 -23 -159 2 -278 23 -377 66
-51 23 -72 26 -162 26 -56 0 -105 4 -108 9 -3 4 -38 12 -78 15 -40 4 -84 14
-96 23 -13 8 -48 17 -78 20 -30 3 -54 10 -54 14 0 5 7 9 15 9 8 0 15 5 15 10
0 6 -8 10 -17 10 -15 0 -16 2 -3 10 13 9 13 10 0 10 -13 0 -13 1 0 10 13 9 13
11 0 20 -8 5 -10 10 -4 10 14 0 23 55 28 175 2 50 9 110 16 135 27 94 29 127
18 247 -12 119 -11 124 10 152 20 27 20 34 10 93 -15 87 -13 106 12 133 l23
24 -19 93 c-11 60 -18 133 -17 203 1 96 6 125 37 229 29 95 36 136 36 201 0
92 0 92 -73 119 -72 27 -76 38 -75 211 1 180 -22 369 -43 348 -11 -11 -74
-350 -84 -453 -11 -112 -22 -131 -94 -164 -33 -15 -65 -35 -70 -45 -6 -10 -26
-72 -45 -138 -33 -111 -36 -130 -36 -254 0 -143 -13 -223 -56 -352 -26 -77
-26 -79 -8 -112 17 -32 17 -36 -3 -111 -19 -70 -19 -80 -6 -101 17 -25 15 -52
-12 -213 -15 -88 -16 -117 -6 -185 6 -44 13 -129 15 -190 4 -104 11 -159 22
-176 5 -9 -44 -49 -61 -49 -7 0 -15 -7 -19 -15 -3 -8 -13 -15 -21 -15 -9 0
-14 -4 -10 -10 3 -5 -17 -12 -47 -17 -48 -6 -50 -8 -23 -14 l30 -7 -30 -2
c-16 -1 -24 -4 -17 -7 22 -9 2 -23 -34 -23 -21 0 -33 -4 -29 -10 4 -6 11 -8
16 -5 5 4 9 1 9 -4 0 -6 -16 -11 -35 -11 -35 0 -50 -19 -17 -21 9 -1 -3 -5
-28 -9 -25 -4 -83 -15 -130 -25 -147 -30 -428 -6 -513 44 -15 8 -30 26 -34 39
-11 44 4 122 36 187 27 53 43 73 97 111 81 58 123 107 172 203 53 102 63 156
52 267 -15 135 -14 143 20 172 32 29 37 56 21 125 -10 43 2 92 25 101 19 7 20
96 1 96 -8 0 -19 -12 -26 -27 -9 -20 -15 -23 -23 -15 -18 18 -28 15 -28 -7 0
-11 -5 -23 -12 -27 -17 -11 -38 25 -39 70 -1 23 -5 55 -9 71 -5 17 -6 -15 -3
-72 l6 -103 -26 0 c-31 0 -34 7 -42 133 -4 57 -11 95 -16 90 -8 -8 4 -163 16
-220 4 -16 1 -23 -9 -23 -7 0 -17 10 -20 23 -7 19 -9 18 -19 -18 -9 -30 -19
-41 -36 -43 -16 -3 -24 2 -28 17 -7 27 -20 27 -28 1 -8 -26 -34 -52 -46 -45
-5 4 -9 25 -10 48 -1 23 -5 53 -9 67 -6 18 -8 7 -9 -42 -1 -38 -5 -68 -11 -68
-5 0 -10 10 -10 23 0 19 -2 18 -20 -11 -27 -44 -44 -36 -48 21 -4 55 -14 60
-27 15 -12 -40 -39 -47 -59 -16 -13 21 -12 31 5 98 13 47 23 137 29 243 12
209 26 291 100 587 63 255 130 556 130 589 0 22 -74 61 -117 61 -14 0 -40 7
-58 16 -51 24 -69 16 -78 -36 -4 -25 -9 -209 -11 -410 -4 -369 -12 -477 -47
-650 -33 -160 -40 -222 -34 -295 3 -40 1 -76 -4 -85 -19 -28 -30 4 -32 88 -1
48 -6 82 -12 82 -7 0 -8 -40 -4 -116 5 -93 4 -114 -6 -105 -10 7 -18 5 -30 -9
-34 -40 -49 -13 -41 74 4 51 4 51 -10 21 -9 -16 -15 -40 -16 -51 0 -30 -26
-50 -44 -35 -7 6 -21 9 -30 5 -13 -5 -16 1 -16 27 0 38 27 137 59 216 13 34
17 54 10 59 -14 8 -13 11 -43 -96 -35 -122 -61 -180 -81 -180 -23 0 -27 20
-16 71 5 24 8 45 7 47 -2 2 -15 -16 -28 -40 -42 -77 -83 -52 -54 33 8 24 14
45 12 46 -2 2 -15 -15 -30 -37 -14 -22 -32 -40 -39 -40 -19 0 -37 21 -37 43 0
16 -3 17 -15 7 -25 -21 -48 -4 -43 33 3 17 9 41 13 52 8 18 7 18 -19 -3 -34
-26 -59 -28 -77 -6 -11 14 -10 22 10 58 141 250 194 432 245 842 29 228 58
373 92 457 25 63 94 165 141 210 23 22 30 37 32 75 1 26 14 90 28 142 45 159
43 258 -13 635 -8 55 -18 181 -21 279 l-6 179 -43 41 c-57 55 -66 99 -34 181
18 45 23 77 21 131 -2 79 14 111 67 133 26 11 30 18 35 67 4 37 21 87 51 147
45 92 72 169 164 457 60 188 95 266 156 348 43 58 121 124 195 164 l32 18 -35
42 c-25 31 -54 51 -101 71 l-67 28 -64 -21 c-61 -21 -94 -21 -94 -2 0 5 16 29
36 55 20 25 33 50 30 56 -4 5 -37 19 -74 32 -139 45 -222 101 -189 126 19 16
77 33 108 33 16 0 72 -23 126 -50 l97 -51 40 48 c22 26 64 73 93 104 29 31 53
60 53 66 0 5 14 29 31 52 32 45 94 80 141 81 43 0 106 -30 128 -60 11 -16 34
-31 50 -35 43 -10 45 -22 5 -36 -44 -16 -56 -48 -48 -137 9 -114 -28 -193
-123 -258 -30 -21 -54 -40 -54 -42 0 -13 35 -42 49 -42 31 0 180 100 218 146
21 25 68 68 105 94 51 38 74 63 99 110 33 63 62 90 124 116 20 8 35 20 33 26
-2 6 -26 18 -54 26 -27 7 -56 20 -65 28 -8 8 -22 14 -30 14 -22 0 -39 21 -39
47 0 18 -8 24 -41 33 -51 14 -89 50 -89 85 0 22 3 25 24 19 18 -4 27 -1 34 13
15 28 -2 59 -48 84 -25 14 -52 41 -67 67 -22 36 -25 52 -20 95 3 29 8 60 12
69 5 13 -3 22 -34 37 -22 12 -47 31 -55 43 -23 32 -31 85 -16 103 12 14 16 13
36 -6 27 -26 69 -20 79 11 3 11 -6 55 -21 100 -25 74 -27 86 -17 135 12 57 69
156 101 176 16 10 17 16 8 40 -8 24 -7 33 10 56 27 37 99 73 146 73 37 0 38 1
38 39 0 45 31 94 78 123 l32 20 0 -46 c0 -25 2 -46 4 -46 2 0 21 17 42 37 21
20 68 50 104 67 59 28 74 31 160 31 87 0 103 -4 186 -38 50 -20 102 -37 116
-37 36 0 68 27 68 58 0 21 2 24 10 12 14 -22 12 -56 -5 -70 -21 -18 -19 -33 4
-21 27 15 54 78 47 112 -7 38 12 38 49 2z m-1805 -5473 c19 0 45 -8 57 -18
l23 -17 -30 -145 c-17 -80 -59 -262 -95 -405 -35 -143 -69 -280 -74 -305 -6
-25 -8 -29 -5 -10 3 19 9 229 13 465 5 237 12 437 16 447 6 14 9 14 33 2 15
-8 43 -14 62 -14z m-133 -997 c-3 -10 -5 -4 -5 12 0 17 2 24 5 18 2 -7 2 -21
0 -30z m1621 -1480 c-10 -2 -28 -2 -40 0 -13 2 -5 4 17 4 22 1 32 -1 23 -4z
m50 -30 c-16 -2 -40 -2 -55 0 -16 2 -3 4 27 4 30 0 43 -2 28 -4z"/>
</g>
</svg>
