<?xml version="1.0" standalone="no"?>
<!DOCTYPE svg PUBLIC "-//W3C//DTD SVG 20010904//EN"
 "http://www.w3.org/TR/2001/REC-SVG-20010904/DTD/svg10.dtd">
<svg version="1.0" xmlns="http://www.w3.org/2000/svg"
 width="584.000000pt" height="770.000000pt" viewBox="0 0 584.000000 770.000000"
 preserveAspectRatio="xMidYMid meet">

<g transform="translate(0.000000,770.000000) scale(0.100000,-0.100000)"
fill="#000000" stroke="none">
<path d="M3280 7096 c-17 -10 -30 -11 -43 -4 -11 5 -42 7 -71 4 -28 -3 -77 -5
-109 -5 -40 0 -69 -6 -96 -22 -31 -17 -42 -19 -59 -10 -44 23 -122 3 -170 -45
-19 -19 -44 -34 -56 -34 -43 0 -202 -134 -212 -178 -4 -15 -29 -48 -55 -73
-41 -38 -49 -51 -49 -82 0 -20 -9 -54 -21 -76 -15 -29 -18 -49 -13 -75 4 -25
2 -42 -7 -53 -11 -12 -13 -56 -11 -197 4 -248 19 -316 91 -398 15 -18 31 -44
35 -58 8 -32 23 -50 64 -79 l32 -22 -29 -42 c-40 -58 -69 -83 -137 -118 -32
-17 -76 -44 -97 -61 -21 -16 -88 -49 -150 -74 -62 -24 -131 -57 -154 -72 -58
-39 -137 -132 -243 -287 -49 -71 -109 -153 -132 -182 -24 -28 -66 -80 -95
-115 -50 -62 -133 -138 -150 -138 -18 0 -106 97 -138 151 -57 98 -61 118 -34
175 19 42 23 67 25 170 1 67 7 155 14 197 18 123 6 135 -228 211 -28 10 -52
19 -52 21 0 1 7 19 15 38 8 20 15 56 15 81 0 36 -5 48 -26 65 -29 23 -83 28
-114 11 -10 -6 -46 -50 -80 -99 -52 -75 -67 -90 -101 -100 -47 -14 -58 -33
-94 -166 -29 -107 -29 -153 0 -251 17 -57 95 -190 163 -279 46 -60 91 -164
184 -420 21 -60 55 -151 74 -202 19 -51 34 -104 34 -119 0 -56 37 -109 110
-158 174 -117 229 -131 353 -92 45 14 86 26 91 26 5 0 29 15 55 33 25 18 67
45 92 59 25 15 58 45 74 68 16 22 64 73 108 113 44 40 107 104 140 142 33 39
63 71 67 73 4 1 13 -26 19 -60 7 -35 24 -106 39 -158 22 -79 27 -115 27 -217
l0 -121 -38 -17 c-61 -27 -122 -163 -116 -258 2 -26 -8 -75 -24 -125 -31 -97
-34 -154 -9 -201 l18 -33 -50 -49 c-28 -27 -69 -58 -91 -69 -91 -44 -185 -151
-185 -210 0 -12 -31 -63 -69 -114 -85 -113 -101 -144 -101 -198 0 -31 -14 -69
-52 -146 -48 -94 -53 -111 -56 -180 -4 -81 1 -100 70 -292 73 -203 109 -338
111 -423 2 -91 22 -132 80 -167 28 -17 30 -23 31 -79 1 -47 6 -64 24 -83 28
-31 28 -34 -8 -75 -16 -18 -30 -39 -31 -46 0 -11 -60 -63 -134 -115 -18 -12
-70 -32 -116 -43 -137 -33 -185 -70 -215 -167 -30 -100 -14 -142 69 -183 40
-21 85 -33 145 -41 115 -14 379 -4 452 17 90 27 129 35 248 51 249 33 296 82
273 287 -7 59 -21 121 -36 156 -17 41 -29 101 -41 206 -15 136 -15 150 0 182
24 50 21 135 -8 202 -18 41 -26 79 -28 141 -4 83 -39 223 -74 293 -10 21 -11
34 -3 49 6 11 9 36 7 54 -2 19 -1 34 3 34 4 0 50 39 101 87 233 217 429 395
432 392 2 -2 -4 -131 -12 -287 -24 -421 -10 -480 146 -620 158 -143 326 -321
350 -373 26 -55 86 -102 146 -114 17 -4 41 -13 54 -21 18 -12 20 -18 12 -34
-20 -37 -12 -90 18 -119 15 -15 34 -30 42 -33 13 -4 13 -9 -2 -36 -10 -16 -18
-35 -18 -42 0 -6 -18 -37 -40 -70 -28 -42 -49 -62 -74 -70 -45 -15 -119 -80
-140 -124 -9 -19 -19 -68 -22 -110 -7 -75 -7 -75 25 -105 46 -43 88 -53 239
-58 142 -5 227 5 331 39 80 26 141 84 190 180 32 62 37 67 79 78 83 20 192
154 192 235 0 38 -34 114 -72 161 -13 16 -36 48 -50 71 -15 23 -46 56 -68 74
-29 23 -58 66 -100 143 -53 101 -58 115 -53 157 8 68 -42 158 -114 208 -20 13
-52 56 -80 107 -44 80 -107 150 -170 191 -34 22 -48 61 -29 82 26 30 63 116
91 211 15 52 38 114 51 137 18 30 26 63 30 120 6 97 44 293 56 293 5 0 22 -10
38 -21 26 -20 42 -22 183 -23 l155 -1 41 33 42 34 187 -46 c103 -25 209 -46
235 -46 56 0 100 22 117 59 11 24 111 362 170 576 15 55 51 180 80 277 46 159
50 181 40 212 -8 26 -22 40 -54 55 -23 12 -48 21 -55 21 -7 0 -9 5 -5 12 4 7
11 51 15 98 5 47 11 106 15 132 11 81 -1 112 -68 176 -33 31 -67 73 -75 92 -8
19 -82 102 -163 185 -81 82 -214 224 -295 315 -81 91 -174 191 -207 222 -74
70 -181 125 -343 174 -100 30 -285 107 -285 119 0 2 20 34 45 72 25 37 60 97
78 133 30 60 32 72 33 172 1 105 2 109 35 157 20 29 51 58 78 72 27 14 49 35
57 54 7 16 26 42 43 58 34 31 55 87 48 125 -3 17 2 36 17 55 27 37 29 116 4
144 -11 12 -18 36 -18 62 0 54 -22 105 -53 126 -14 9 -30 28 -36 44 -7 15 -44
55 -82 89 -57 50 -77 62 -104 62 -23 0 -43 9 -62 26 -35 33 -64 44 -112 44
-23 0 -44 6 -52 16 -35 42 -119 57 -169 30z m137 -58 c23 -22 38 -29 54 -25
38 10 80 -5 115 -39 26 -27 41 -34 72 -34 33 0 47 -8 105 -64 37 -35 67 -69
67 -76 0 -7 17 -27 38 -45 35 -31 37 -36 37 -93 0 -49 5 -66 23 -85 29 -31 28
-64 -4 -110 -19 -29 -24 -45 -19 -67 8 -38 -19 -95 -56 -117 -17 -10 -29 -27
-31 -42 -2 -19 -15 -32 -48 -50 -30 -16 -57 -42 -82 -81 -38 -56 -38 -57 -38
-161 0 -94 -3 -110 -29 -164 -15 -33 -54 -98 -85 -145 -42 -62 -55 -89 -48
-100 15 -26 193 -106 322 -145 135 -41 223 -81 283 -127 20 -16 138 -141 261
-276 122 -136 265 -288 317 -337 60 -57 104 -108 118 -138 13 -26 45 -67 72
-90 60 -51 74 -82 65 -145 -4 -26 -10 -85 -14 -132 -4 -47 -13 -95 -20 -107
-6 -12 -12 -24 -12 -27 0 -3 27 -15 61 -27 91 -33 91 -34 26 -256 -31 -103
-64 -219 -75 -258 -11 -38 -45 -158 -76 -265 -31 -107 -63 -219 -71 -247 -32
-109 -70 -115 -331 -48 -96 25 -184 45 -196 45 -11 0 -38 -16 -59 -35 -36 -32
-45 -35 -107 -37 -37 -1 -78 -1 -92 0 -14 2 -46 4 -73 6 -32 2 -55 10 -71 25
-17 16 -33 22 -57 19 -34 -3 -34 -4 -57 -93 -13 -49 -27 -139 -32 -198 -6 -83
-12 -115 -27 -135 -11 -15 -34 -76 -52 -136 -36 -121 -61 -178 -98 -218 l-25
-27 22 -45 c12 -25 25 -46 29 -46 4 0 35 -25 69 -56 41 -37 80 -86 116 -148
37 -63 67 -100 93 -118 22 -15 50 -47 67 -78 24 -44 27 -59 22 -97 -5 -42 -1
-55 55 -159 40 -76 76 -128 106 -157 75 -69 183 -236 183 -282 0 -66 -101
-181 -176 -200 -44 -11 -48 -15 -86 -86 -41 -78 -86 -132 -128 -154 -135 -69
-498 -75 -572 -8 -18 16 -20 26 -15 86 8 96 45 146 144 194 41 19 59 37 92 88
23 35 41 69 41 77 0 7 7 22 15 32 8 11 15 27 15 36 0 9 11 27 25 40 27 26 23
50 -5 25 -30 -27 -86 -2 -103 46 -3 9 4 31 15 50 l20 33 -33 28 c-18 15 -56
34 -84 43 -69 20 -103 48 -130 110 -18 41 -65 92 -234 256 -243 237 -250 247
-258 394 -5 82 4 323 23 599 4 60 3 87 -4 85 -10 -4 -233 -205 -519 -469 -94
-86 -102 -98 -97 -123 3 -16 0 -42 -6 -58 -11 -25 -10 -35 2 -62 39 -82 77
-227 84 -318 4 -58 14 -108 25 -129 31 -63 34 -104 9 -155 -19 -39 -21 -55
-15 -118 14 -155 28 -235 56 -318 38 -115 48 -239 22 -289 -11 -21 -33 -43
-58 -54 -47 -24 -159 -45 -237 -45 -32 -1 -58 -5 -58 -11 0 -5 -11 -10 -24
-10 -13 0 -43 -7 -67 -16 -80 -28 -245 -46 -359 -39 -130 8 -191 21 -252 51
-56 28 -67 56 -49 123 23 90 71 127 199 154 78 17 108 34 220 122 28 22 51 46
51 52 1 7 17 33 36 59 34 44 46 84 25 84 -5 0 -18 10 -30 22 -23 25 -26 74 -6
97 18 20 12 31 -34 58 -75 46 -84 64 -91 176 -6 93 -14 124 -94 362 -83 249
-87 263 -83 331 4 63 11 83 57 170 42 77 52 105 48 129 -7 44 17 93 101 205
56 73 72 103 72 128 0 27 11 45 55 91 31 32 80 71 110 87 54 30 175 137 175
156 0 6 -11 21 -25 34 -34 31 -33 87 4 196 20 61 28 98 24 125 -6 43 17 132
47 180 13 22 34 37 69 50 55 19 59 28 35 75 -15 28 -15 40 -3 101 12 68 12 72
-25 216 -20 80 -43 180 -50 221 -7 41 -17 75 -22 75 -6 0 -45 -42 -88 -93 -43
-51 -116 -127 -163 -170 -46 -42 -100 -98 -118 -124 -20 -27 -53 -57 -77 -69
-23 -12 -59 -35 -78 -50 -19 -16 -51 -32 -70 -35 -19 -4 -54 -15 -78 -26 -85
-35 -137 -21 -288 77 -91 59 -123 104 -124 173 0 18 -18 79 -39 135 -22 56
-58 152 -80 212 -80 224 -123 321 -165 375 -108 141 -162 243 -177 335 -10 65
-9 79 15 175 29 114 47 144 84 137 20 -4 31 7 75 72 57 83 109 141 126 141 7
0 23 -11 37 -25 29 -29 26 -51 -15 -130 -14 -27 -27 -53 -29 -57 -2 -5 12 -8
32 -8 19 0 87 -19 151 -41 123 -44 142 -60 130 -107 -4 -15 -10 -99 -14 -187
-5 -137 -10 -167 -29 -206 -12 -25 -22 -55 -22 -66 0 -46 83 -187 150 -256 63
-64 67 -67 96 -57 71 26 228 206 418 483 140 203 192 251 330 303 91 35 166
71 191 95 11 10 52 34 90 54 86 45 103 60 165 152 46 68 48 73 27 73 -34 0
-96 47 -103 78 -4 15 -26 53 -50 85 -63 85 -75 135 -73 302 1 77 -2 157 -6
178 -5 27 -3 44 9 62 12 18 14 36 10 64 -5 31 -2 48 15 74 11 19 21 50 21 70
0 28 7 41 35 66 20 17 40 31 45 31 6 0 10 7 10 16 0 34 34 85 79 119 25 19 58
44 72 56 15 12 40 22 57 23 20 1 38 12 56 33 39 46 96 62 143 39 32 -15 37
-15 52 -2 35 32 90 48 126 36 27 -9 40 -8 65 5 35 18 74 14 103 -12 16 -15 19
-15 40 4 45 41 84 39 134 -9z"/>
</g>
</svg>
