<?xml version="1.0" standalone="no"?>
<!DOCTYPE svg PUBLIC "-//W3C//DTD SVG 20010904//EN"
 "http://www.w3.org/TR/2001/REC-SVG-20010904/DTD/svg10.dtd">
<svg version="1.0" xmlns="http://www.w3.org/2000/svg"
 width="592.000000pt" height="792.000000pt" viewBox="0 0 592.000000 792.000000"
 preserveAspectRatio="xMidYMid meet">

<g transform="translate(0.000000,792.000000) scale(0.100000,-0.100000)"
fill="#000000" stroke="none">
<path d="M3549 7626 c-253 -148 -517 -406 -684 -666 -57 -88 -131 -242 -171
-355 -39 -111 -40 -256 -2 -395 14 -52 48 -176 76 -275 75 -273 74 -268 57
-309 -8 -19 -15 -44 -15 -55 0 -11 -11 -31 -25 -45 -32 -32 -33 -83 -2 -122
31 -39 48 -114 47 -210 -1 -60 7 -115 30 -205 l30 -122 -27 -30 c-42 -44 -151
-104 -241 -132 -44 -14 -131 -55 -193 -91 -266 -155 -451 -242 -521 -246 l-42
-3 -30 68 c-30 67 -30 69 -13 99 11 19 17 51 17 89 0 50 -4 63 -29 91 l-28 32
24 48 c37 73 51 131 69 277 12 100 13 140 5 158 -6 13 -11 60 -11 104 0 76 -2
82 -29 110 -16 16 -37 29 -45 29 -14 0 -15 17 -9 148 7 176 -4 227 -71 325
-25 36 -51 79 -60 95 -18 35 -21 78 -6 87 6 3 10 46 10 95 0 78 -3 92 -21 109
-27 25 -102 35 -214 29 -117 -6 -125 -14 -125 -130 0 -49 4 -97 10 -107 15
-29 -4 -74 -58 -142 -89 -110 -105 -148 -110 -270 l-4 -106 -34 -18 c-43 -23
-84 -102 -84 -163 0 -32 -7 -53 -27 -79 -25 -32 -28 -46 -29 -113 -1 -42 -7
-93 -14 -114 -7 -23 -9 -51 -4 -74 4 -20 8 -64 8 -97 1 -46 8 -71 28 -106 35
-60 150 -182 207 -221 25 -17 47 -32 49 -34 2 -1 -4 -14 -13 -28 -13 -20 -16
-40 -13 -78 5 -45 11 -56 46 -87 l40 -36 16 -130 c18 -146 52 -292 89 -383 30
-75 103 -193 157 -254 50 -57 90 -72 196 -70 l82 1 32 -41 c39 -48 85 -78 122
-78 37 0 131 36 266 103 l113 55 -6 -46 c-4 -26 -22 -140 -41 -254 -19 -113
-34 -226 -34 -250 0 -62 24 -137 61 -188 31 -42 31 -46 33 -164 1 -67 -3 -148
-10 -181 -7 -33 -18 -145 -24 -250 -6 -104 -16 -215 -22 -245 -33 -174 -36
-245 -10 -276 25 -32 86 -66 182 -104 47 -19 90 -38 96 -42 23 -16 36 -97 22
-134 -9 -27 -9 -46 0 -94 11 -52 11 -63 -4 -85 -12 -18 -15 -43 -13 -92 6
-157 5 -161 -57 -217 -49 -45 -64 -53 -122 -63 -138 -26 -200 -82 -247 -224
-30 -91 -30 -146 2 -181 65 -72 282 -112 482 -89 110 13 139 22 244 70 56 27
87 34 185 42 141 12 211 39 238 90 14 29 16 52 11 160 -4 70 -14 156 -23 192
-13 55 -14 76 -4 133 21 126 23 160 9 185 -8 14 -14 61 -15 109 -1 47 -5 108
-9 137 l-7 52 42 26 c23 15 45 36 48 47 4 18 6 17 18 -10 17 -41 48 -60 146
-88 45 -13 85 -29 89 -35 3 -6 5 -91 3 -188 -2 -114 1 -203 9 -251 13 -77 13
-79 -23 -333 -14 -97 -5 -159 28 -198 35 -42 112 -79 165 -79 37 0 48 -5 78
-36 18 -20 63 -51 99 -68 l65 -31 210 0 c241 0 288 10 356 74 37 36 39 41 39
100 0 47 -8 81 -30 134 -41 100 -90 147 -181 176 -50 16 -103 76 -124 139 -17
54 -17 92 1 214 5 38 2 54 -14 82 -19 32 -20 41 -10 99 9 54 8 70 -5 97 -11
22 -15 45 -11 74 6 42 8 43 63 61 84 26 172 68 210 100 l33 29 -4 105 c-2 60
-10 117 -17 130 -9 15 -19 108 -27 250 -8 124 -20 254 -27 288 l-13 61 115 37
c236 75 452 204 595 356 94 99 111 139 110 259 0 53 -8 121 -17 155 -15 56
-15 61 2 80 10 11 24 30 30 42 27 52 16 78 -174 411 -263 460 -367 611 -468
681 -23 15 -85 50 -137 76 -52 27 -113 63 -135 81 -22 17 -80 56 -130 87 -101
62 -165 121 -149 137 7 7 24 -3 54 -30 62 -57 125 -95 200 -120 56 -19 82 -21
186 -18 117 3 123 4 195 41 41 20 102 62 136 93 35 30 67 52 73 49 27 -17 63
-120 75 -217 9 -66 23 -72 159 -65 116 6 214 30 274 67 49 30 44 66 -25 189
-73 126 -116 178 -193 229 -157 105 -340 127 -484 56 -30 -14 -93 -58 -140
-96 -100 -81 -131 -94 -172 -69 -31 19 -94 84 -134 139 -22 29 -24 41 -21 110
2 69 -1 83 -28 137 -17 33 -31 68 -31 78 0 24 69 157 238 457 159 282 147 247
147 450 0 187 -11 262 -61 417 -79 244 -276 544 -454 692 -73 61 -98 64 -181
20 l-59 -32 -44 37 c-80 65 -189 136 -210 136 -12 0 -55 -20 -97 -44z m167
-37 c32 -23 85 -64 117 -92 l59 -50 77 41 77 41 29 -18 c17 -10 67 -57 112
-104 277 -290 432 -648 436 -1007 1 -98 -3 -136 -17 -175 -10 -27 -85 -170
-167 -317 -238 -429 -230 -406 -178 -504 29 -55 31 -64 26 -137 l-5 -78 74
-89 c128 -154 172 -158 329 -30 91 73 111 85 184 110 72 24 126 25 206 5 163
-42 270 -129 362 -292 28 -50 53 -100 55 -110 3 -19 -53 -52 -127 -73 -57 -16
-181 -27 -224 -21 -35 6 -36 7 -42 61 -4 30 -12 74 -18 97 -14 50 -70 137 -91
140 -8 2 -49 -27 -90 -63 -125 -109 -249 -154 -384 -138 -123 14 -205 54 -302
146 l-61 58 -38 -35 -37 -36 48 -52 c26 -29 88 -78 138 -110 49 -32 113 -75
140 -95 28 -21 96 -60 150 -88 179 -89 262 -188 493 -589 214 -373 263 -463
263 -487 0 -13 -14 -43 -30 -65 l-31 -42 17 -63 c10 -37 18 -102 18 -158 1
-115 -8 -135 -108 -239 -146 -152 -337 -265 -581 -342 l-137 -44 7 -30 c25
-124 35 -216 41 -357 3 -102 12 -191 24 -238 26 -108 32 -184 18 -215 -13 -29
-109 -79 -220 -116 -71 -23 -72 -24 -83 -101 -5 -35 -2 -53 11 -73 15 -23 15
-34 4 -99 -12 -70 -11 -75 9 -103 21 -29 22 -34 13 -136 -11 -113 -6 -151 28
-217 26 -50 67 -86 129 -110 84 -33 108 -55 147 -136 84 -176 33 -248 -197
-274 -114 -13 -269 -3 -353 22 -54 17 -78 31 -115 68 -44 44 -52 48 -107 52
-41 3 -72 12 -101 31 -65 41 -71 75 -44 267 25 185 26 224 5 324 -14 67 -14
80 -1 99 12 19 12 30 -1 86 -13 57 -13 68 1 96 12 26 13 41 3 90 l-12 59 -84
21 c-90 23 -119 35 -139 58 -6 8 -16 62 -21 121 -9 102 -21 146 -40 146 -16 0
-30 -72 -30 -150 0 -84 -12 -110 -59 -129 -20 -9 -31 -22 -35 -43 -9 -45 -7
-106 3 -112 16 -10 19 -59 9 -122 -9 -54 -8 -65 6 -79 20 -20 20 -32 0 -146
-14 -82 -14 -97 1 -167 22 -105 32 -301 16 -331 -21 -38 -87 -60 -219 -71
-107 -10 -128 -15 -189 -46 -87 -45 -161 -63 -293 -70 -115 -7 -265 13 -323
42 -86 44 -93 75 -47 199 46 123 100 165 235 182 39 5 57 13 83 39 18 19 37
34 42 34 5 0 21 17 34 38 20 29 26 52 28 112 2 41 -1 89 -5 106 -7 26 -4 37
16 60 25 29 25 30 9 93 -13 52 -13 69 -3 98 11 29 10 46 -4 103 l-17 68 -61
23 c-80 29 -197 86 -221 107 -16 15 -18 27 -12 105 3 48 11 97 17 108 6 11 14
100 19 197 9 180 22 300 38 369 5 21 8 95 7 165 -2 125 -2 127 -34 170 -36 49
-61 123 -61 181 0 22 11 105 25 186 27 160 65 409 65 423 0 5 -37 -11 -82 -35
-115 -62 -310 -147 -338 -147 -34 0 -82 34 -110 78 l-25 40 -102 -2 c-118 -1
-128 3 -206 100 -65 80 -131 220 -161 339 -26 104 -56 290 -56 344 0 31 -14
50 -68 93 -32 26 -30 91 3 122 14 13 25 26 25 28 0 3 -38 33 -83 66 -88 64
-186 174 -213 239 -10 23 -13 49 -9 71 3 19 1 55 -6 81 -10 39 -9 52 4 76 11
22 13 49 10 101 -5 68 -4 72 26 106 26 30 31 44 31 87 0 81 52 161 105 161 12
0 15 17 15 98 0 142 11 171 120 308 41 52 45 62 45 113 0 31 -4 86 -8 123 -8
60 -6 69 12 87 18 18 33 21 120 21 55 0 112 -5 126 -10 26 -10 26 -11 21 -88
-2 -42 -8 -95 -11 -118 -7 -45 14 -98 65 -164 71 -91 75 -107 77 -320 l2 -195
23 3 c44 4 52 -11 62 -115 18 -211 -3 -385 -63 -503 -17 -33 -31 -67 -31 -75
0 -9 14 -28 31 -43 25 -22 31 -36 32 -74 1 -32 -3 -52 -16 -65 -9 -11 -17 -32
-17 -48 0 -29 75 -195 88 -195 4 0 41 9 82 21 91 25 309 130 485 234 76 45
165 89 215 105 107 36 185 78 250 137 35 32 49 51 45 62 -4 9 -20 66 -36 126
-23 85 -29 130 -29 200 1 98 -22 198 -53 233 -24 26 -18 64 11 77 17 7 22 18
22 45 0 19 9 55 20 79 13 28 17 48 11 55 -5 6 -18 50 -30 98 -11 48 -43 166
-71 262 -95 330 -100 390 -46 551 115 344 382 684 728 929 74 52 167 106 184
106 6 0 37 -18 70 -41z"/>
</g>
</svg>
