<?xml version="1.0" standalone="no"?>
<!DOCTYPE svg PUBLIC "-//W3C//DTD SVG 20010904//EN"
 "http://www.w3.org/TR/2001/REC-SVG-20010904/DTD/svg10.dtd">
<svg version="1.0" xmlns="http://www.w3.org/2000/svg"
 width="692.000000pt" height="826.000000pt" viewBox="0 0 692.000000 826.000000"
 preserveAspectRatio="xMidYMid meet">

<g transform="translate(0.000000,826.000000) scale(0.100000,-0.100000)"
fill="#000000" stroke="none">
<path d="M2620 7423 c-8 -3 -27 -14 -42 -25 -21 -15 -32 -17 -47 -8 -38 20
-104 12 -152 -18 -34 -22 -53 -27 -84 -24 -52 5 -103 -28 -130 -85 -16 -34
-25 -42 -47 -43 -37 0 -85 -44 -99 -90 -6 -21 -21 -43 -34 -50 -31 -16 -55
-62 -55 -104 0 -20 -5 -36 -11 -36 -19 0 -52 -90 -45 -128 3 -22 -1 -54 -11
-82 -16 -45 -16 -49 4 -88 15 -31 19 -54 15 -91 -3 -35 0 -56 12 -72 9 -14 16
-44 16 -73 0 -37 6 -57 25 -82 l26 -34 -78 -74 c-79 -76 -104 -90 -300 -171
-35 -14 -89 -36 -120 -49 -32 -14 -128 -45 -214 -70 -85 -25 -182 -57 -215
-72 -73 -33 -189 -109 -208 -136 -8 -11 -54 -62 -103 -112 -105 -109 -170
-223 -199 -351 -26 -111 -26 -356 -1 -475 35 -164 113 -358 188 -466 21 -31
29 -54 29 -87 0 -27 10 -62 25 -93 14 -27 25 -49 25 -49 0 0 -30 -1 -66 -2
-55 -2 -76 -8 -139 -43 -102 -56 -195 -171 -195 -240 0 -21 -7 -30 -30 -40
-44 -18 -78 -64 -86 -115 -5 -37 -2 -55 21 -100 35 -72 89 -105 180 -113 60
-4 65 -7 65 -28 0 -13 10 -31 23 -40 l23 -18 -33 -60 c-46 -87 -46 -148 2
-219 19 -28 35 -61 35 -72 0 -11 7 -51 15 -90 43 -202 181 -332 365 -343 102
-6 105 -13 67 -130 -15 -48 -31 -115 -34 -149 -6 -62 -6 -62 32 -100 36 -35
38 -42 36 -90 -3 -65 19 -100 84 -134 42 -22 46 -27 40 -53 -3 -16 -24 -70
-48 -120 l-42 -91 0 -120 c0 -104 3 -127 23 -169 15 -34 19 -53 12 -60 -13
-13 -13 -66 1 -196 12 -104 12 -106 -14 -155 -36 -68 -63 -95 -130 -129 -64
-32 -128 -89 -152 -136 -23 -44 -57 -175 -62 -236 -7 -74 15 -109 82 -140 89
-41 332 -56 545 -34 137 15 163 24 365 134 87 47 108 90 113 222 3 64 -2 140
-12 207 l-17 106 31 97 c17 53 34 117 37 143 5 34 16 58 44 90 22 24 51 69 66
100 25 51 28 67 29 173 1 101 5 123 27 170 l24 55 89 17 c144 29 160 45 189
186 23 111 89 310 104 310 11 0 49 -178 61 -279 11 -99 27 -122 104 -147 89
-29 93 -43 44 -144 -27 -57 -31 -75 -31 -150 -1 -87 14 -152 40 -182 10 -11
14 -29 10 -50 -3 -19 7 -86 24 -161 l30 -127 -22 -68 c-17 -52 -23 -100 -26
-217 -5 -145 -4 -151 19 -184 49 -73 147 -103 323 -100 117 3 124 2 260 -41
l140 -44 185 0 c308 0 451 39 493 133 19 44 19 45 -1 129 -52 211 -139 279
-374 298 -84 6 -89 8 -155 55 -39 28 -75 64 -85 84 -18 35 -18 42 -2 197 4 39
2 63 -5 72 -10 11 -8 26 5 68 11 35 18 94 19 173 2 79 8 132 18 155 8 19 18
58 22 85 6 47 9 52 56 78 71 40 90 74 88 167 -2 72 0 77 30 107 29 29 31 36
30 100 0 37 -11 109 -23 158 -15 57 -20 96 -15 107 5 9 9 32 9 50 0 41 -40
156 -68 195 -23 32 -40 113 -23 113 26 0 64 73 82 158 34 162 18 326 -36 376
-23 21 -23 21 -4 56 10 19 18 44 19 56 0 18 10 21 101 33 63 8 138 25 197 47
52 19 109 34 128 34 141 0 226 66 274 215 8 25 31 56 61 83 63 57 96 127 113
238 7 50 18 100 25 112 21 39 13 123 -18 187 -23 49 -30 78 -34 160 -7 112
-25 183 -68 266 -18 34 -35 89 -43 140 -29 179 -113 355 -223 471 -188 198
-234 225 -517 307 -201 59 -239 75 -381 158 l-100 59 -17 79 c-9 44 -17 129
-17 189 l-1 109 35 34 c19 19 38 46 42 61 3 15 23 44 45 64 34 34 38 43 38 86
0 26 -4 52 -10 58 -6 6 -1 27 15 58 43 84 24 173 -42 205 -27 13 -33 22 -33
49 0 83 -67 152 -146 152 -37 0 -43 3 -54 31 -21 49 -84 89 -139 89 -25 0 -55
-7 -65 -15 -18 -13 -22 -13 -43 7 -17 16 -37 22 -76 23 -28 1 -69 9 -89 18
-39 18 -53 19 -78 10z m80 -63 c28 -30 29 -30 57 -13 46 26 80 12 93 -38 l11
-40 44 40 c25 23 52 41 60 41 46 0 115 -63 115 -106 0 -22 3 -24 53 -21 100 4
160 -69 133 -164 -7 -24 -5 -26 24 -26 76 0 102 -99 47 -182 -26 -39 -27 -44
-13 -60 9 -10 16 -33 16 -51 0 -26 -9 -41 -40 -70 -24 -22 -40 -46 -40 -60 0
-13 -15 -37 -36 -56 l-36 -34 -4 -118 c-3 -84 1 -143 13 -212 l18 -95 95 -57
c157 -95 227 -124 415 -178 248 -70 295 -94 429 -227 177 -174 252 -315 286
-535 6 -39 26 -100 50 -150 33 -68 43 -104 55 -193 8 -61 15 -125 15 -144 0
-18 9 -48 19 -65 37 -60 43 -108 22 -168 -10 -29 -22 -78 -25 -108 -10 -97
-34 -149 -99 -215 -41 -41 -65 -76 -77 -112 -48 -136 -85 -166 -222 -182 -45
-6 -119 -23 -163 -39 -44 -17 -129 -37 -189 -46 -59 -9 -112 -19 -117 -22 -5
-3 -9 -20 -9 -37 0 -22 -10 -45 -30 -67 -16 -19 -29 -38 -30 -42 0 -4 14 -15
31 -23 69 -36 92 -181 55 -349 -20 -92 -24 -101 -66 -141 -29 -28 -31 -33 -25
-80 4 -27 18 -66 31 -85 27 -41 64 -142 64 -177 0 -13 -4 -33 -10 -43 -7 -13
-3 -45 15 -111 14 -52 25 -121 25 -155 0 -57 -2 -63 -35 -93 -20 -18 -33 -36
-30 -40 2 -5 5 -41 6 -80 2 -84 -12 -106 -93 -147 -43 -22 -48 -28 -48 -58 0
-19 -10 -65 -22 -102 -17 -53 -22 -95 -23 -184 -1 -90 -6 -126 -22 -166 -18
-46 -19 -54 -5 -79 9 -19 12 -41 8 -69 -18 -113 -17 -166 5 -208 24 -47 40
-62 124 -117 55 -36 67 -39 150 -44 133 -9 188 -28 249 -90 44 -45 55 -64 79
-140 31 -101 32 -108 12 -147 -37 -71 -241 -116 -492 -108 -138 5 -224 22
-363 74 -34 12 -83 17 -200 18 -139 1 -160 4 -207 25 -51 23 -75 47 -85 87
-11 43 11 279 32 343 23 71 21 92 -22 249 -13 49 -17 86 -13 112 5 31 2 46
-14 69 -27 38 -45 132 -36 195 3 27 18 72 32 100 19 36 27 67 27 104 0 60 -3
64 -79 87 -73 21 -92 46 -100 130 -15 157 -65 345 -91 345 -30 0 -109 -200
-139 -352 -29 -150 -40 -161 -185 -188 l-85 -16 -34 -68 c-25 -51 -33 -80 -31
-110 11 -158 -12 -242 -86 -324 -25 -29 -44 -60 -44 -73 0 -13 -19 -84 -41
-157 l-42 -134 17 -92 c19 -107 21 -248 5 -312 -12 -48 -52 -87 -102 -99 -15
-4 -31 -13 -35 -20 -10 -18 -148 -81 -212 -96 -38 -10 -124 -14 -280 -14 -189
0 -234 3 -284 18 -72 23 -106 54 -106 100 0 46 37 192 60 237 24 48 81 97 145
126 28 13 64 38 81 56 77 84 90 139 70 297 -14 103 -14 116 1 141 15 26 14 31
-11 94 -21 53 -27 83 -27 150 0 76 4 93 39 177 40 94 62 161 62 189 0 9 -25
30 -55 48 -77 46 -91 69 -76 128 l12 46 -42 36 c-41 35 -41 36 -36 91 3 31 19
96 36 145 26 78 29 92 17 115 -7 14 -11 33 -9 41 3 13 -11 15 -89 15 -83 0
-99 3 -151 30 -74 37 -149 118 -175 188 -11 28 -27 90 -37 137 -12 61 -25 98
-48 130 -41 59 -40 97 7 187 38 71 39 97 6 108 -12 4 -21 20 -25 45 l-7 40
-61 0 c-72 0 -137 27 -168 71 -55 78 -21 178 66 191 16 3 21 13 25 54 8 80 74
162 173 217 83 46 125 51 217 27 41 -11 81 -20 89 -20 8 0 -13 29 -47 64 -69
71 -82 97 -82 160 0 31 -10 58 -36 102 -147 242 -212 479 -201 729 12 263 54
354 264 569 104 107 130 127 204 164 46 22 156 62 244 87 88 25 196 62 240 81
44 20 103 44 131 53 136 49 205 90 286 168 44 43 84 85 88 94 6 11 0 27 -22
54 -27 32 -32 46 -31 89 1 29 -5 57 -12 66 -20 22 -21 41 -6 77 12 29 11 35
-13 70 -31 46 -32 62 -5 97 18 23 19 30 8 59 -15 42 -6 78 26 113 18 19 25 38
25 66 0 41 34 88 65 88 10 0 15 9 15 26 0 61 65 118 108 95 30 -16 32 -14 32
25 0 72 94 131 141 88 16 -14 19 -14 35 11 17 27 81 65 108 65 8 0 28 -11 44
-25 17 -14 33 -25 37 -25 3 0 21 16 39 35 41 43 69 44 106 5z"/>
<path d="M4315 3260 c-17 -10 -45 -44 -64 -75 -28 -47 -35 -68 -39 -129 l-4
-74 -34 14 c-20 8 -68 14 -119 14 -82 0 -121 -10 -137 -34 -17 -26 -6 -86 28
-154 37 -75 85 -124 142 -144 17 -7 32 -15 32 -19 0 -18 -65 -59 -117 -74
-106 -31 -165 -129 -167 -277 -1 -70 2 -80 29 -120 17 -23 46 -51 65 -62 19
-10 47 -36 62 -57 38 -54 119 -104 211 -130 123 -35 126 -40 146 -286 12 -143
32 -203 111 -323 61 -93 104 -234 94 -307 -4 -27 0 -66 11 -106 22 -81 13
-114 -61 -232 -88 -138 -83 -198 17 -225 46 -13 163 -5 232 14 38 11 45 19 74
77 31 62 32 67 26 164 -4 72 -1 117 10 160 8 33 18 84 22 113 6 49 9 53 29 48
11 -3 24 -6 28 -6 4 0 7 -42 6 -92 0 -51 2 -118 6 -148 7 -49 6 -57 -13 -74
-12 -11 -21 -25 -21 -31 0 -7 -7 -18 -15 -25 -8 -7 -15 -20 -15 -30 0 -10 -9
-37 -20 -61 -25 -56 -26 -121 -2 -141 43 -38 125 -47 239 -27 118 21 143 65
144 256 0 88 6 132 33 237 36 146 28 137 144 149 l62 7 0 -51 c0 -43 5 -55 30
-80 37 -37 32 -51 -50 -161 -54 -72 -60 -84 -60 -128 0 -75 20 -84 166 -77 81
4 122 10 139 21 37 24 74 107 84 185 13 101 30 141 59 141 13 0 37 13 53 29
24 25 29 38 29 79 0 56 5 65 30 52 56 -30 53 -167 -7 -292 -64 -133 -75 -162
-71 -203 2 -32 10 -44 37 -62 67 -45 231 -25 283 34 30 33 57 135 56 215 0 76
14 142 57 267 37 108 34 152 -15 231 -34 56 -40 73 -40 122 0 32 8 92 17 134
l17 76 14 -48 c14 -48 56 -118 86 -143 9 -8 21 -33 27 -56 31 -124 178 -192
283 -132 57 32 65 50 38 84 -12 15 -38 59 -59 97 -36 67 -65 94 -137 127 -58
27 -86 125 -86 299 0 169 -52 297 -169 419 -80 84 -152 132 -251 168 -68 24
-88 27 -215 27 -129 0 -150 -2 -260 -33 -103 -29 -137 -34 -236 -35 l-116 -1
-52 35 -51 35 97 5 c113 6 168 27 271 104 55 41 62 50 62 81 0 27 -8 43 -38
73 -49 49 -146 98 -223 113 -32 6 -59 13 -59 16 0 2 7 17 14 32 59 112 -2 301
-97 301 -43 0 -50 -10 -66 -82 -9 -43 -20 -64 -42 -83 -17 -14 -36 -25 -42
-25 -17 0 -85 50 -101 75 -9 13 -26 27 -38 30 -13 4 -36 17 -53 30 -87 64
-151 71 -236 26 -30 -15 -70 -31 -91 -35 -35 -6 -37 -5 -48 28 -6 20 -8 55 -4
84 6 44 4 51 -17 66 -31 21 -57 20 -94 -4z m71 -90 c0 -68 20 -123 49 -133 8
-4 15 -13 15 -22 0 -8 7 -15 15 -15 18 0 20 17 3 22 -6 2 -8 9 -5 15 11 17
102 27 126 13 15 -7 21 -7 21 0 0 6 -9 14 -21 18 -19 7 -16 10 21 27 67 30
114 18 191 -52 23 -21 39 -30 39 -22 0 8 13 0 28 -17 15 -17 44 -43 65 -58 32
-23 44 -27 75 -21 47 9 99 63 107 113 4 20 11 48 16 61 9 21 11 22 32 9 12 -8
30 -31 41 -52 40 -80 30 -163 -28 -239 l-34 -44 83 -5 c60 -4 99 -13 141 -32
71 -33 144 -91 144 -116 0 -36 -123 -116 -224 -145 -57 -17 -88 -17 -188 1
-34 6 -38 4 -38 -14 0 -31 56 -90 113 -119 92 -46 209 -42 452 18 150 37 255
40 370 9 112 -30 168 -63 261 -155 133 -131 168 -221 182 -470 7 -110 13 -159
27 -185 20 -41 64 -90 80 -90 32 0 87 -55 119 -118 19 -38 42 -74 51 -82 15
-12 13 -15 -17 -31 -94 -50 -199 2 -232 114 -8 29 -27 64 -42 77 -59 56 -94
168 -94 306 0 40 -4 75 -9 78 -5 4 -14 -18 -21 -46 -86 -394 -88 -438 -27
-536 47 -76 47 -104 0 -240 -30 -89 -37 -124 -41 -207 -2 -65 -11 -122 -25
-164 -19 -59 -24 -65 -66 -84 -54 -24 -132 -28 -178 -8 -53 22 -49 47 39 228
34 70 41 95 45 166 4 65 2 90 -11 114 -16 32 -74 83 -93 83 -17 0 -45 -70 -40
-98 10 -51 -27 -91 -72 -77 -16 5 -23 -4 -41 -51 -11 -32 -25 -87 -29 -123
-12 -90 -44 -157 -83 -170 -46 -16 -213 -14 -227 2 -17 22 2 69 63 148 50 66
96 165 96 207 0 13 -3 12 -18 -1 -45 -41 -77 0 -66 84 8 57 19 54 -128 37 -57
-6 -106 -16 -110 -22 -4 -6 -17 -51 -28 -99 -11 -48 -26 -100 -32 -115 -6 -15
-14 -97 -17 -182 -8 -181 -14 -194 -85 -215 -61 -18 -172 -19 -206 -2 -21 11
-25 20 -24 57 1 24 6 46 13 48 6 2 11 12 11 22 0 10 5 22 11 25 6 4 8 13 5 21
-3 8 -1 14 5 14 5 0 22 25 36 56 22 48 24 63 18 112 -4 32 -8 104 -9 162 l-1
105 -53 8 c-73 12 -82 7 -82 -48 0 -25 -9 -81 -20 -124 -16 -59 -20 -104 -18
-178 3 -127 -17 -186 -71 -210 -48 -21 -221 -24 -244 -4 -23 18 -21 60 4 96
102 151 129 230 104 310 -8 28 -15 80 -15 117 0 36 -9 106 -21 154 -17 71 -30
100 -74 163 -75 107 -101 190 -113 367 -14 202 -24 215 -177 264 -93 30 -104
37 -170 101 -38 37 -89 85 -112 106 -51 47 -61 91 -44 177 24 114 57 156 147
186 73 24 108 49 130 92 17 33 13 58 -11 58 -25 0 -88 36 -117 67 -54 56 -96
181 -68 198 6 4 46 6 90 6 88 -1 131 -14 191 -62 24 -19 46 -29 55 -25 15 6
15 8 0 29 -53 72 -60 154 -20 235 28 56 68 95 93 90 13 -3 16 -18 17 -68z"/>
</g>
</svg>
